<svg version="1.1" xmlns="http://www.w3.org/2000/svg" xmlns:xlink="http://www.w3.org/1999/xlink" width="71" height="71" viewBox="0,0,256,256"><g fill="#ffffff" fill-rule="nonzero" stroke="none" stroke-width="1" stroke-linecap="butt" stroke-linejoin="miter" stroke-miterlimit="10" stroke-dasharray="" stroke-dashoffset="0" font-family="none" font-weight="none" font-size="none" text-anchor="none" style="mix-blend-mode: normal"><g transform="translate(1.58227,-0.16028) scale(3.60563,3.60563)"><path d="M6.06376,19.1673l-1.75,3.031c-0.64433,1.116 -0.26198,2.543 0.854,3.1874l11.11364,6.4166c1.116,0.6444 2.543,0.262 3.1874,-0.854l1.75,-3.031c0.6443,-1.116 0.2619,-2.543 -0.854,-3.1873l-11.11371,-6.4167c-1.11598,-0.6443 -2.543,-0.262 -3.18733,0.854z"></path><path d="M28.1733,30.4017l-4.34,-2.485l-2.9167,5.0517c4.83,2.7767 4.4684,2.6484 4.9117,2.6017c0.6726,0.8612 1.2884,1.7653 1.8433,2.7067c0.8083,-1.6201 1.7323,-3.1797 2.765,-4.6667c-0.77,-0.665 -1.4233,-1.1667 -1.9016,-1.5167c0.3347,-0.5726 0.1779,-1.3059 -0.3617,-1.6917z"></path><path d="M16.278,49.6973l-11.11366,6.4167c-1.11598,0.6443 -1.49833,2.0713 -0.854,3.1873l1.75,3.031c0.64434,1.116 2.07136,1.4983 3.18734,0.854l11.11372,-6.4167c1.1159,-0.6443 1.4983,-2.0713 0.8539,-3.1873l-1.75,-3.031c-0.6443,-1.116 -2.0713,-1.4983 -3.1873,-0.854z"></path><path d="M50.7483,22.8184c-5.915,2.52 -5.5417,2.275 -7.3384,3.3483c-4.2933,2.485 -8.5516,5.1217 -11.2233,9.03c-1.1521,1.7991 -2.1962,3.6652 -3.1267,5.5883c-0.8852,1.8427 -1.9563,3.5901 -3.1966,5.215c-0.49,0 -0.07,-0.21 -4.9234,2.59l2.8934,4.9934l4.3166,-2.485c0.5458,-0.4107 0.6876,-1.1701 0.3267,-1.75l0.07,0.0933c3.2275,-2.4505 6.0637,-5.3772 8.4117,-8.68c4.4216,-6.09 -0.2334,-2.695 15.1666,-11.585l14.0001,-8.0617c-5.1883,-0.6443 -10.4553,-0.0608 -15.3767,1.7034z"></path><path d="M38.37,42.7918c-1.4319,1.9278 -3.02,3.7344 -4.7483,5.4017c2.6133,3.0333 8.89,6.8716 12.2033,8.4583c-0.5789,2.9464 -1.4183,5.8355 -2.5083,8.6333c-0.4743,0.9709 -0.3729,2.1245 0.2633,2.9978c0.6363,0.8733 1.7033,1.3233 2.7728,1.1694c1.0696,-0.1539 1.9664,-0.8865 2.3306,-1.9038c1.1507,-2.8019 2.0563,-5.6983 2.7066,-8.6567c4.7243,1.6019 9.7501,2.1125 14.7,1.4933l-13.5333,-7.8166c0.9613,-6.9397 0.9613,-13.9787 0,-20.9184l-5.5533,3.2084c0.4862,4.8138 0.4862,9.6645 0,14.4783c-8.2367,-4.725 -6.545,-3.465 -8.6334,-6.545z"></path><path d="M39.805,17.0201c-2.3333,-6.51 -13.9417,-11.02503 -18.4217,-7.37336c-0.1283,2.93996 2.7884,6.61496 7.3034,8.87836c4.2116,2.1 8.5516,2.3333 10.9666,0.84c1.3208,0.1693 2.6577,0.1693 3.9784,0c0.385,1.1666 0.7583,2.3333 1.0733,3.5l5.2967,-2.24c0.1866,0 0.1283,0 0,-0.315c-0.5717,-6.23 8.8317,-10.69836 8.8317,-10.73336c1.0485,-0.35021 1.8089,-1.26313 1.9639,-2.35772c0.1549,-1.09459 -0.3224,-2.18268 -1.2325,-2.81011c-0.9102,-0.62744 -2.0969,-0.68636 -3.0648,-0.15217c-3.686,1.74947 -6.9316,4.30527 -9.4967,7.47836c-1.251,-2.94853 -2.6768,-5.81975 -4.27,-8.59836c-0.5032,-0.93119 -1.4715,-1.51664 -2.5299,-1.52971c-1.0584,-0.01306 -2.0408,0.54832 -2.5669,1.4668c-0.5261,0.91849 -0.5132,2.04991 0.0335,2.95624c2.0284,3.54341 3.7647,7.24623 5.1917,11.07163c-1.0188,0.0855 -2.0439,0.0582 -3.0567,-0.0816z"></path></g></g></svg>