<svg version="1.1" xmlns="http://www.w3.org/2000/svg" xmlns:xlink="http://www.w3.org/1999/xlink" width="71" height="71" viewBox="0,0,256,256"><defs><clipPath id="clip-1"><rect x="0.5" y="0.5" width="70" height="70" id="clip0_9004_3334" fill="none"></rect></clipPath></defs><g fill="none" fill-rule="nonzero" stroke="none" stroke-width="1" stroke-linecap="butt" stroke-linejoin="miter" stroke-miterlimit="10" stroke-dasharray="" stroke-dashoffset="0" font-family="none" font-weight="none" font-size="none" text-anchor="none" style="mix-blend-mode: normal"><g transform="scale(3.60563,3.60563)"><g clip-path="url(#clip-1)"><path d="M19.7073,50.8113c1.4852,-3.023 -0.3904,-6.8875 -1.5826,-8.7567h-5.6618c-0.2901,0 -0.5683,0.1152 -0.7734,0.3203c-0.2051,0.2051 -0.3204,0.4833 -0.3204,0.7734c0,4.5277 3.8882,7.7573 8.3382,7.663z" fill="#ffffff"></path><path d="M38.7205,42.0546h-13.1394c0.9012,2.1477 1.4654,5.7002 1.0151,8.7474c3.1278,-0.0033 6.0666,-0.0044 6.2515,0.0026c0.2675,0.0102 4.4499,-1.3838 6.2098,-1.9524c0.22,-0.071 0.4118,-0.21 0.5478,-0.397c0.136,-0.1869 0.2092,-0.4122 0.209,-0.6434v-4.6635c0,-0.2901 -0.1152,-0.5683 -0.3204,-0.7734c-0.2051,-0.2051 -0.4833,-0.3203 -0.7734,-0.3203z" fill="#ffffff"></path><path d="M61.7428,30.0396c-6.5364,-0.3925 -10.9922,6.3984 -8.7428,12.015h-1.0937c-0.2901,0 -0.5683,0.1152 -0.7734,0.3203c-0.2052,0.2051 -0.3204,0.4833 -0.3204,0.7734v4.375c0,0.2901 0.1152,0.5683 0.3204,0.7734c0.2051,0.2051 0.4833,0.3204 0.7734,0.3204h9.2968c1.2593,-0.0014 2.5052,-0.2584 3.6622,-0.7553c1.1571,-0.4969 2.2013,-1.2234 3.0694,-2.1356c0.8681,-0.9122 1.5421,-1.9911 1.9811,-3.1714c0.439,-1.1802 0.6339,-2.4373 0.573,-3.6951c-0.2287,-4.7153 -4.0336,-8.5371 -8.746,-8.8201zM61.2031,44.2421c-0.9734,0 -1.925,-0.2887 -2.7344,-0.8295c-0.8094,-0.5409 -1.4403,-1.3095 -1.8128,-2.2089c-0.3725,-0.8994 -0.47,-1.889 -0.2801,-2.8437c0.1899,-0.9548 0.6587,-1.8318 1.347,-2.5201c0.6884,-0.6883 1.5654,-1.1571 2.5201,-1.347c0.9548,-0.1899 1.9444,-0.0925 2.8437,0.2801c0.8994,0.3725 1.6681,1.0033 2.2089,1.8127c0.5408,0.8094 0.8295,1.761 0.8295,2.7345c-0.0014,1.3049 -0.5205,2.556 -1.4432,3.4787c-0.9227,0.9227 -2.1738,1.4417 -3.4787,1.4432z" fill="#ffffff"></path><path d="M47.5252,45.3438h-4.3702c-0.2898,-0.0004 -0.5677,-0.1158 -0.7726,-0.3208c-0.2048,-0.2051 -0.3199,-0.4831 -0.3199,-0.773v-31.7187c-0.0004,-0.2894 0.1141,-0.5671 0.3182,-0.7721c0.2041,-0.2051 0.4813,-0.3208 0.7706,-0.3217c4.0849,-0.0022 7.8784,3.7278 7.6515,7.916v13.5625c0.0085,0.5904 -2.058,6.4418 -2.185,6.9667v4.3673c0,0.2899 -0.1151,0.5679 -0.32,0.773c-0.2048,0.205 -0.4827,0.3204 -0.7726,0.3208z" fill="#ffffff"></path><path d="M42.0625,48.625v3.7734c-7.0084,-2.1328 -14.3048,4.3961 -11.3613,12.5493c0.6901,1.9218 2.0858,3.5089 3.9037,4.439c7.013,3.5685 14.0201,-1.4707 14.0201,-8.1152v-12.6465c0,-0.2901 -0.1153,-0.5683 -0.3204,-0.7734c-0.2051,-0.2051 -0.4833,-0.3204 -0.7734,-0.3204h-4.375c-0.29,0 -0.5682,0.1153 -0.7734,0.3204c-0.2051,0.2051 -0.3203,0.4833 -0.3203,0.7734zM39.3281,66.1934c-0.9734,0 -1.925,-0.2887 -2.7344,-0.8295c-0.8094,-0.5408 -1.4403,-1.3095 -1.8128,-2.2089c-0.3725,-0.8993 -0.47,-1.889 -0.2801,-2.8437c0.1899,-0.9548 0.6587,-1.8318 1.347,-2.5201c0.6884,-0.6883 1.5653,-1.1571 2.5201,-1.347c0.9547,-0.1899 1.9444,-0.0925 2.8437,0.2801c0.8994,0.3725 1.6681,1.0033 2.2089,1.8127c0.5408,0.8094 0.8295,1.761 0.8295,2.7345c-0.0015,1.3049 -0.5205,2.556 -1.4432,3.4787c-0.9227,0.9227 -2.1738,1.4417 -3.4787,1.4432z" fill="#ffffff"></path><path d="M17.8564,36.9657c1.4957,4.0809 4.5186,5.5531 4.5186,11.6593c0,7.9869 -10.9375,7.1011 -10.9375,20.7812c0,1.4055 2.1875,1.3922 2.1875,0c0,-12.4869 10.9375,-10.4089 10.9375,-20.7812c0,-6.8279 -3.108,-8.3831 -4.5605,-12.4551c-0.5254,-1.4707 -2.6202,-0.4992 -2.1456,0.7958z" fill="#ffffff"></path><path d="M36.6947,14.7803c-0.1966,-0.0803 -3.9755,-1.6028 -7.5953,-1.8222c1.546,-3.20867 2.0948,-7.08615 2.1231,-7.29218c0.0223,-0.18255 -0.0013,-0.36779 -0.0688,-0.53888c-0.0675,-0.17109 -0.1766,-0.32261 -0.3175,-0.44079c-0.1409,-0.11818 -0.3092,-0.19927 -0.4894,-0.23591c-0.1802,-0.03663 -0.3667,-0.02765 -0.5426,0.02612c-0.2022,0.06495 -4.076,1.32782 -6.9902,3.48633c-0.878,-3.45187 -2.9495,-6.77509 -3.0604,-6.95119c-0.1002,-0.15427 -0.2374,-0.28105 -0.3991,-0.36882c-0.1616,-0.08777 -0.3427,-0.13374 -0.5266,-0.13374c-0.184,0 -0.365,0.04597 -0.5267,0.13374c-0.1617,0.08777 -0.2989,0.21455 -0.3991,0.36882c-0.113,0.17979 -2.268,3.63672 -3.1126,7.16406c-2.8915,-2.08045 -6.61531,-3.29437 -6.81341,-3.35808c-0.17588,-0.05378 -0.3624,-0.06276 -0.54263,-0.02612c-0.18023,0.03663 -0.34844,0.11773 -0.48936,0.23591c-0.14091,0.11817 -0.25007,0.26969 -0.31754,0.44078c-0.06747,0.17109 -0.09112,0.35633 -0.06879,0.53888c0.02884,0.21027 0.59978,4.24417 2.21949,7.48877c-3.55168,0.2659 -7.18348,1.7296 -7.37666,1.8081c-0.16935,0.0719 -0.31806,0.185 -0.43259,0.3289c-0.11453,0.144 -0.19126,0.3143 -0.22321,0.4955c-0.03195,0.1812 -0.01811,0.3675 0.04026,0.542c0.05837,0.1744 0.15942,0.3315 0.29398,0.457c0.15736,0.1426 3.18841,2.8654 6.51519,4.3095c-2.55062,2.4865 -4.39318,5.9421 -4.49025,6.1268c-0.08356,0.1639 -0.12481,0.3461 -0.12001,0.53c0.00481,0.1839 0.05551,0.3637 0.1475,0.523c0.09199,0.1594 0.22235,0.2932 0.37922,0.3893c0.15688,0.0961 0.33529,0.1514 0.51901,0.161c0.21219,0.0082 4.28395,0.1464 7.7604,-0.8854c-0.3554,3.5439 0.4552,7.3752 0.4991,7.5786c0.0413,0.1793 0.1269,0.3453 0.2488,0.4831c0.1219,0.1378 0.2763,0.2429 0.4491,0.3058c0.1729,0.0629 0.3588,0.0816 0.5407,0.0544c0.1819,-0.0272 0.3542,-0.0994 0.5011,-0.2101c0.1679,-0.1302 3.3756,-2.6424 5.3755,-5.6678c2.0058,2.9436 5.0898,5.3581 5.2538,5.4859c0.147,0.1107 0.3192,0.183 0.5012,0.2102c0.1819,0.0272 0.3678,0.0085 0.5406,-0.0545c0.1729,-0.0629 0.3273,-0.168 0.4492,-0.3058c0.1219,-0.1378 0.2074,-0.3039 0.2488,-0.4832c0.0448,-0.2075 0.8887,-4.1934 0.4756,-7.7962c3.4284,0.9654 7.3418,0.8325 7.55,0.8245c0.1838,-0.0096 0.3621,-0.065 0.519,-0.1611c0.1568,-0.0962 0.2872,-0.23 0.3792,-0.3893c0.092,-0.1593 0.1427,-0.3391 0.1475,-0.523c0.0048,-0.1839 -0.0364,-0.3661 -0.1199,-0.53c-0.0992,-0.1878 -2.0161,-3.7831 -4.6485,-6.278c3.2472,-1.4641 6.1609,-4.0817 6.3149,-4.2214c0.1346,-0.1255 0.2357,-0.2826 0.2941,-0.457c0.0584,-0.1744 0.0723,-0.3607 0.0403,-0.5419c-0.0319,-0.1811 -0.1086,-0.3515 -0.223,-0.4954c-0.1145,-0.144 -0.2632,-0.2571 -0.4325,-0.329zM18.8279,24.5639c-1.0817,0 -2.139,-0.3208 -3.0383,-0.9217c-0.8993,-0.6009 -1.6003,-1.455 -2.0142,-2.4543c-0.4139,-0.9993 -0.5222,-2.0988 -0.3112,-3.1597c0.211,-1.0608 0.7319,-2.0353 1.4967,-2.8001c0.7648,-0.7648 1.7392,-1.2856 2.8001,-1.4967c1.0608,-0.211 2.1604,-0.1027 3.1597,0.3113c0.9992,0.4139 1.8533,1.1148 2.4543,2.0141c0.6009,0.8994 0.9216,1.9567 0.9216,3.0383c0,1.4504 -0.5762,2.8414 -1.6017,3.867c-1.0256,1.0256 -2.4166,1.6018 -3.867,1.6018z" fill="#ffffff"></path></g></g></g></svg>