<svg version="1.1" xmlns="http://www.w3.org/2000/svg" xmlns:xlink="http://www.w3.org/1999/xlink" width="71" height="71" viewBox="0,0,256,256"><defs><clipPath id="clip-1"><rect x="0.5" y="0.5" width="70" height="70" id="clip0_9004_3306" fill="none"></rect></clipPath></defs><g fill="none" fill-rule="nonzero" stroke="none" stroke-width="1" stroke-linecap="butt" stroke-linejoin="miter" stroke-miterlimit="10" stroke-dasharray="" stroke-dashoffset="0" font-family="none" font-weight="none" font-size="none" text-anchor="none" style="mix-blend-mode: normal"><g transform="scale(3.60563,3.60563)"><g clip-path="url(#clip-1)"><path d="M41.9851,12.1595c-2.4247,-2.31463 -6.2667,-2.22544 -8.5807,0.1992c-2.3146,2.4246 -2.226,6.2661 0.1986,8.5807c2.4247,2.3146 6.2661,2.2254 8.5807,-0.1992c2.3146,-2.4241 2.2255,-6.2661 -0.1986,-8.5807z" fill="#ffffff"></path><path d="M52.2129,32.4094c0,-1.3175 -0.9453,-2.4134 -2.1939,-2.65c0.2515,0.6489 0.4288,1.3907 0.4288,2.1944c0,1.2342 -0.4187,2.3243 -0.8811,3.1521c1.4659,-0.0284 2.6462,-1.2236 2.6462,-2.6965z" fill="#ffffff"></path><path d="M68.391,56.4035h-1.5583c-1.0393,0 -2.0364,-0.4129 -2.7713,-1.1477l-0.8075,-0.8075v-3.7566c0.4332,-0.6638 0.9117,-1.646 0.9117,-2.7419c0,-2.0011 -1.5953,-3.623 -1.5953,-3.623c0,0 -1.5952,1.6219 -1.5952,3.623c0,1.0965 0.4785,2.0781 0.9116,2.7419v0.9357c-0.119,-0.2206 -0.2686,-0.4315 -0.455,-0.6185c-1.0157,-1.0152 -2.7536,-0.9239 -2.7536,-0.9239c0,0 -0.0918,1.7384 0.9234,2.7536c0.6852,0.6852 1.6978,0.8657 2.2852,0.9111v0.6986l-0.8074,0.8075c-0.7349,0.7348 -1.732,1.1477 -2.7713,1.1477h-2.823c-1.0393,0 -2.0364,-0.4129 -2.7712,-1.1477l-0.2366,-0.2372c-0.6927,-0.6926 -1.8163,-0.6926 -2.509,0l-0.2366,0.2372c-0.7349,0.7348 -1.732,1.1477 -2.7712,1.1477h-8.2459c1.4041,-0.7419 2.1298,-2.3985 1.646,-3.9724l-3.7694,-11.8577c-0.376,-1.2245 -1.4131,-2.1303 -2.6772,-2.3381l-0.6948,-0.1142l-5.6418,5.9098l3.1776,0.5234l3.1552,9.8587c0.274,0.8919 0.8844,1.5867 1.6487,1.9905h-12.0799c1.7042,-0.9005 2.2986,-3.0271 1.3427,-4.6747l-6.718,-11.5773l5.1852,5.5505l9.0918,-9.5244l-2.9581,-7.2285l5.0986,7.2664c0.1907,0.2719 0.4294,0.5058 0.705,0.6906l9.5703,6.4258c1.2401,0.8331 2.9159,0.4988 3.7453,-0.736c0.8102,-1.2059 0.5148,-2.8267 -0.6457,-3.678v-4.2223c0.4326,-0.6638 0.9111,-1.6454 0.9111,-2.7418c0,-2.0012 -1.5947,-3.6231 -1.5947,-3.6231c0,0 -1.5952,1.6219 -1.5952,3.6231c0,1.0964 0.4785,2.078 0.9117,2.7423v3.2968l-7.8769,-5.2888l-4.8108,-6.8562l3.2963,2.9832l2.2222,1.9189l5.0409,3.3848c-0.2488,-0.6456 -0.424,-1.3832 -0.424,-2.181c0,-0.8236 0.1869,-1.5835 0.4481,-2.2436h-3.6391l-10.1514,-8.2293c-1.6379,-1.5637 -4.2334,-1.5034 -5.7966,0.1346l-13.9234,14.804c-0.97577,1.0372 -1.25508,2.6239 -0.4999,3.9248c1.0766,1.8559 4.2778,7.3732 5.63,9.7039h-9.78178c-1.86013,0 -3.43186,1.4702 -3.45536,3.3303c-0.01655,1.3106 0.71511,2.4519 1.7939,3.025h-2.05025c-1.16104,0 -2.10365,0.9719 -2.04864,2.1495c0.05234,1.1034 1.00349,1.952 2.10792,1.952h65.83911c1.1654,0 2.1042,-0.972 2.0487,-2.1496c-0.0523,-1.1033 -1.0024,-1.9519 -2.1069,-1.9519z" fill="#ffffff"></path></g></g></g></svg>