<svg version="1.1" xmlns="http://www.w3.org/2000/svg" xmlns:xlink="http://www.w3.org/1999/xlink" width="71" height="71" viewBox="0,0,256,256"><defs><clipPath id="clip-1"><rect x="0.5" y="0.5" width="70" height="70" id="clip0_9004_1327" fill="none"></rect></clipPath></defs><g fill="none" fill-rule="nonzero" stroke="none" stroke-width="1" stroke-linecap="butt" stroke-linejoin="miter" stroke-miterlimit="10" stroke-dasharray="" stroke-dashoffset="0" font-family="none" font-weight="none" font-size="none" text-anchor="none" style="mix-blend-mode: normal"><g transform="scale(3.60563,3.60563)"><g clip-path="url(#clip-1)"><path d="M29.3475,56.0763c0,-5.6537 -4.6002,-10.2539 -10.2539,-10.2539c-5.6537,0 -10.25376,4.6003 -10.25376,10.2539c0,5.6536 4.60006,10.2539 10.25376,10.2539c5.8785,0 10.2539,-4.8159 10.2539,-10.2539zM17.0428,56.0763c0,-1.1329 0.9182,-2.0508 2.0508,-2.0508c1.1326,0 2.0508,0.9179 2.0508,2.0508c0,1.1326 -0.9182,2.0508 -2.0508,2.0508c-1.1326,0 -2.0508,-0.9182 -2.0508,-2.0508z" fill="#ffffff"></path><path d="M62.2967,49.924c-4.5241,0 -8.2029,3.6789 -8.2029,8.2031c0,4.4085 3.5689,8.2031 8.2029,8.2031c4.5242,0 8.2032,-3.679 8.2032,-8.2031c0,-4.6331 -3.7763,-8.2031 -8.2032,-8.2031z" fill="#ffffff"></path><path d="M62.2968,45.8224c1.1594,0 2.2593,0.2033 3.3486,0.5214c-1.1842,-2.9675 -3.6992,-5.3112 -6.9414,-6.159c-26.9235,-6.9641 -23.1208,-5.9362 -24.7581,-6.3587c-4.1356,-1.0395 -8.89,0.745 -11.2112,4.4601l-2.262,3.5741c7.2605,0.706 12.9766,6.7734 12.9766,14.216c0,2.1393 -0.5061,4.2365 -1.4221,6.1523h18.6893c-0.0052,-0.0153 -0.0141,-0.0288 -0.0193,-0.044c-0.4566,-1.2176 -0.7049,-2.6156 -0.7049,-4.0576c-0.0002,-6.7852 5.5193,-12.3046 12.3045,-12.3046zM39.6015,51.9747c0,1.1335 -0.9172,2.0508 -2.0508,2.0508c-1.1335,0 -2.0507,-0.9173 -2.0507,-2.0508v-4.1016c0,-1.1335 0.9172,-2.0507 2.0507,-2.0507c1.1336,0 2.0508,0.9172 2.0508,2.0507zM47.9414,51.9747c0,1.1335 -0.9173,2.0508 -2.0508,2.0508c-1.1336,0 -2.0508,-0.9173 -2.0508,-2.0508v-4.1016c0,-1.1335 0.9172,-2.0507 2.0508,-2.0507c1.1335,0 2.0508,0.9172 2.0508,2.0507z" fill="#ffffff"></path><path d="M56.1447,33.5177c0,1.1335 1.0538,2.0508 2.1873,2.0508h8.0663c1.1335,0 2.0508,-0.9173 2.0508,-2.0508c0,-1.1335 -0.9173,-2.0508 -2.0508,-2.0508h-8.0663c-1.1335,0 -2.1873,0.9173 -2.1873,2.0508z" fill="#ffffff"></path><path d="M54.5058,27.3654c0.5682,0.984 1.8258,1.3148 2.8018,0.751l7.0939,-4.1016c0.9814,-0.5668 1.3178,-1.8204 0.751,-2.8017c-0.5708,-0.9854 -1.8264,-1.3158 -2.8018,-0.751l-7.0939,4.1015c-0.9814,0.5669 -1.3178,1.8206 -0.751,2.8018z" fill="#ffffff"></path><path d="M52.8633,22.0978l3.9629,-7.1036c0.5668,-0.9814 0.2304,-2.2351 -0.751,-2.8018c-0.9814,-0.5667 -2.237,-0.2343 -2.8018,0.751l-3.9629,7.1036c-0.5668,0.9814 -0.2304,2.2351 0.751,2.8018c0.9779,0.5649 2.2345,0.2312 2.8018,-0.751z" fill="#ffffff"></path><path d="M1.90184,8.66553l11.18376,3.81967l2.9858,29.5694c2.5719,-0.5547 3.6854,-0.2564 4.1003,-0.2248l-3.1389,-31.0768c-0.0822,-0.80313 -0.6269,-1.48399 -1.392,-1.73843l-12.44136,-4.23828c-1.08145,-0.36053 -2.23508,0.22231 -2.59356,1.29582c-0.35834,1.07543 0.22244,2.23699 1.29596,2.59342z" fill="#ffffff"></path><path d="M45.3558,28.2967c-4.0115,-1.0736 -6.6696,-1.7364 -8.3999,-2.137c-1.8044,-0.4705 -3.7171,-0.0741 -5.2171,1.0855c-0.798,0.6171 -1.4039,1.4061 -1.8122,2.2896c1.5644,-0.1732 3.1715,-0.1504 5.0186,0.3139l14.9108,3.7952l0.0356,0.015c-0.2563,-2.5743 -2.0231,-4.7499 -4.5358,-5.3622z" fill="#ffffff"></path></g></g></g></svg>