<svg width="503" height="122" viewBox="0 0 503 122" fill="none" xmlns="http://www.w3.org/2000/svg">
<path d="M6.642 42.522C5.17267 42.522 4.05133 42.116 3.278 41.304C2.50467 40.492 2.118 39.3513 2.118 37.882V5.692C2.118 2.63733 3.64533 1.11 6.7 1.11H20.794C25.3567 1.11 28.8753 2.27 31.35 4.59C33.8247 6.87133 35.062 10.0613 35.062 14.16C35.062 18.2587 33.8247 21.468 31.35 23.788C28.8753 26.108 25.3567 27.268 20.794 27.268H11.108V37.882C11.108 39.3513 10.7213 40.492 9.948 41.304C9.21333 42.116 8.11133 42.522 6.642 42.522ZM11.108 20.308H19.286C24.042 20.308 26.42 18.2587 26.42 14.16C26.42 10.1387 24.042 8.128 19.286 8.128H11.108V20.308ZM53.0837 42.638C49.7197 42.638 46.8197 42.0387 44.3837 40.84C41.9864 39.6027 40.1304 37.882 38.8157 35.678C37.5397 33.4353 36.9017 30.806 36.9017 27.79C36.9017 24.8513 37.5204 22.28 38.7577 20.076C40.0337 17.8333 41.7544 16.0933 43.9197 14.856C46.1237 13.58 48.6564 12.942 51.5177 12.942C55.655 12.942 58.9417 14.2567 61.3777 16.886C63.8137 19.4767 65.0317 22.9953 65.0317 27.442C65.0317 28.9113 64.123 29.646 62.3057 29.646H45.2537C45.563 31.8887 46.375 33.532 47.6897 34.576C49.043 35.5813 50.899 36.084 53.2577 36.084C54.1857 36.084 55.2297 35.9873 56.3897 35.794C57.5884 35.562 58.729 35.1753 59.8117 34.634C60.933 34.0927 61.8804 33.996 62.6537 34.344C63.427 34.6533 63.949 35.1947 64.2197 35.968C64.529 36.7413 64.529 37.5533 64.2197 38.404C63.949 39.216 63.311 39.8927 62.3057 40.434C60.9524 41.1687 59.4444 41.71 57.7817 42.058C56.1577 42.4447 54.5917 42.638 53.0837 42.638ZM51.8657 18.742C50.0097 18.742 48.5017 19.3027 47.3417 20.424C46.2204 21.5453 45.5244 23.1113 45.2537 25.122H57.7817C57.5497 20.8687 55.5777 18.742 51.8657 18.742ZM74.6497 42.522C71.6337 42.522 70.1257 41.0333 70.1257 38.056V17.466C70.1257 14.5273 71.5564 13.058 74.4177 13.058C77.2791 13.058 78.7097 14.5273 78.7097 17.466V18.51C80.1017 15.0687 82.9824 13.2127 87.3517 12.942C88.3184 12.8647 89.0531 13.116 89.5557 13.696C90.0971 14.2373 90.3871 15.146 90.4257 16.422C90.5031 17.6207 90.2517 18.568 89.6717 19.264C89.1304 19.96 88.2024 20.3853 86.8877 20.54L85.5537 20.656C81.2231 21.0813 79.0577 23.2853 79.0577 27.268V38.056C79.0577 41.0333 77.5884 42.522 74.6497 42.522ZM102.339 42.522C100.909 42.522 99.8066 42.1353 99.0333 41.362C98.2986 40.5887 97.9313 39.4867 97.9313 38.056V20.076H95.8433C93.5619 20.076 92.4213 18.9933 92.4213 16.828C92.4213 14.624 93.5619 13.522 95.8433 13.522H97.9313C98.0086 9.578 99.0719 6.62 101.121 4.648C103.209 2.63733 106.225 1.43866 110.169 1.052L112.025 0.877997C113.301 0.761999 114.229 1.01333 114.809 1.632C115.428 2.212 115.757 2.92733 115.795 3.778C115.873 4.62866 115.679 5.402 115.215 6.098C114.79 6.75533 114.152 7.12266 113.301 7.2L112.489 7.258C110.401 7.41266 108.913 7.91533 108.023 8.766C107.134 9.578 106.689 10.8347 106.689 12.536V13.522H110.807C113.089 13.522 114.229 14.624 114.229 16.828C114.229 18.9933 113.089 20.076 110.807 20.076H106.689V38.056C106.689 41.0333 105.239 42.522 102.339 42.522ZM131.984 42.638C128.62 42.638 125.72 42.0387 123.284 40.84C120.887 39.6027 119.031 37.882 117.716 35.678C116.44 33.4353 115.802 30.806 115.802 27.79C115.802 24.8513 116.421 22.28 117.658 20.076C118.934 17.8333 120.655 16.0933 122.82 14.856C125.024 13.58 127.557 12.942 130.418 12.942C134.555 12.942 137.842 14.2567 140.278 16.886C142.714 19.4767 143.932 22.9953 143.932 27.442C143.932 28.9113 143.023 29.646 141.206 29.646H124.154C124.463 31.8887 125.275 33.532 126.59 34.576C127.943 35.5813 129.799 36.084 132.158 36.084C133.086 36.084 134.13 35.9873 135.29 35.794C136.489 35.562 137.629 35.1753 138.712 34.634C139.833 34.0927 140.781 33.996 141.554 34.344C142.327 34.6533 142.849 35.1947 143.12 35.968C143.429 36.7413 143.429 37.5533 143.12 38.404C142.849 39.216 142.211 39.8927 141.206 40.434C139.853 41.1687 138.345 41.71 136.682 42.058C135.058 42.4447 133.492 42.638 131.984 42.638ZM130.766 18.742C128.91 18.742 127.402 19.3027 126.242 20.424C125.121 21.5453 124.425 23.1113 124.154 25.122H136.682C136.45 20.8687 134.478 18.742 130.766 18.742ZM162.888 42.638C159.795 42.638 157.088 42.0387 154.768 40.84C152.487 39.6027 150.727 37.8627 149.49 35.62C148.253 33.3773 147.634 30.7287 147.634 27.674C147.634 24.6193 148.253 21.99 149.49 19.786C150.727 17.582 152.487 15.9 154.768 14.74C157.088 13.5413 159.795 12.942 162.888 12.942C164.087 12.942 165.363 13.0967 166.716 13.406C168.108 13.6767 169.442 14.16 170.718 14.856C171.685 15.32 172.284 15.9773 172.516 16.828C172.748 17.64 172.69 18.452 172.342 19.264C172.033 20.076 171.511 20.6753 170.776 21.062C170.08 21.41 169.249 21.3327 168.282 20.83C166.735 20.018 165.227 19.612 163.758 19.612C161.477 19.612 159.698 20.3273 158.422 21.758C157.185 23.15 156.566 25.1413 156.566 27.732C156.566 30.284 157.185 32.2947 158.422 33.764C159.698 35.1947 161.477 35.91 163.758 35.91C164.454 35.91 165.189 35.8327 165.962 35.678C166.735 35.4847 167.509 35.1753 168.282 34.75C169.249 34.2473 170.08 34.1893 170.776 34.576C171.511 34.9627 172.013 35.562 172.284 36.374C172.555 37.1473 172.574 37.9593 172.342 38.81C172.11 39.6607 171.53 40.318 170.602 40.782C169.287 41.4393 167.973 41.9033 166.658 42.174C165.343 42.4833 164.087 42.638 162.888 42.638ZM190.871 42.638C182.867 42.638 178.865 38.752 178.865 30.98V20.076H176.429C174.148 20.076 173.007 18.9933 173.007 16.828C173.007 14.624 174.148 13.522 176.429 13.522H178.865V9.114C178.865 6.13666 180.335 4.648 183.273 4.648C186.173 4.648 187.623 6.13666 187.623 9.114V13.522H193.133C195.376 13.522 196.497 14.624 196.497 16.828C196.497 18.9933 195.376 20.076 193.133 20.076H187.623V30.632C187.623 32.256 187.991 33.474 188.725 34.286C189.499 35.098 190.717 35.504 192.379 35.504C192.959 35.504 193.501 35.446 194.003 35.33C194.506 35.214 194.97 35.1367 195.395 35.098C195.937 35.0593 196.381 35.2333 196.729 35.62C197.077 36.0067 197.251 36.7993 197.251 37.998C197.251 38.9647 197.097 39.796 196.787 40.492C196.478 41.1493 195.937 41.6327 195.163 41.942C194.661 42.1353 193.965 42.29 193.075 42.406C192.225 42.5607 191.49 42.638 190.871 42.638ZM221.878 42C220.37 42 219.229 41.6133 218.456 40.84C217.682 40.028 217.296 38.8873 217.296 37.418V5.576C217.296 4.10667 217.682 2.98533 218.456 2.212C219.229 1.4 220.35 0.993999 221.82 0.993999C224.797 0.993999 226.286 2.52133 226.286 5.576V34.402H241.83C244.42 34.402 245.716 35.6587 245.716 38.172C245.716 40.724 244.42 42 241.83 42H221.878ZM259.418 42.638C257.291 42.638 255.416 42.232 253.792 41.42C252.168 40.608 250.872 39.506 249.906 38.114C248.978 36.722 248.514 35.156 248.514 33.416C248.514 31.3667 249.055 29.7233 250.138 28.486C251.22 27.2487 252.98 26.3787 255.416 25.876C257.852 25.3347 261.08 25.064 265.102 25.064H267.19V24.078C267.19 22.3767 266.803 21.178 266.03 20.482C265.256 19.7473 263.942 19.38 262.086 19.38C261.042 19.38 259.901 19.5153 258.664 19.786C257.426 20.018 256.092 20.424 254.662 21.004C253.579 21.468 252.67 21.5067 251.936 21.12C251.201 20.6947 250.718 20.076 250.486 19.264C250.254 18.4133 250.312 17.5627 250.66 16.712C251.046 15.8613 251.781 15.2427 252.864 14.856C254.681 14.16 256.382 13.6767 257.968 13.406C259.592 13.0967 261.08 12.942 262.434 12.942C266.842 12.942 270.128 13.9473 272.294 15.958C274.459 17.93 275.542 21.004 275.542 25.18V38.056C275.542 41.0333 274.188 42.522 271.482 42.522C268.736 42.522 267.364 41.0333 267.364 38.056V37.708C266.784 39.216 265.798 40.4147 264.406 41.304C263.052 42.1933 261.39 42.638 259.418 42.638ZM261.39 36.78C263.014 36.78 264.386 36.2193 265.508 35.098C266.629 33.9767 267.19 32.5267 267.19 30.748V29.588H265.16C262.182 29.588 260.075 29.8587 258.838 30.4C257.6 30.9027 256.982 31.792 256.982 33.068C256.982 34.1507 257.349 35.04 258.084 35.736C258.857 36.432 259.959 36.78 261.39 36.78ZM286.483 42.522C283.544 42.522 282.075 41.0333 282.075 38.056V17.466C282.075 14.5273 283.506 13.058 286.367 13.058C289.228 13.058 290.659 14.5273 290.659 17.466V17.698C291.626 16.1513 292.921 14.972 294.545 14.16C296.169 13.348 297.986 12.942 299.997 12.942C303.361 12.942 305.874 13.928 307.537 15.9C309.2 17.8333 310.031 20.83 310.031 24.89V38.056C310.031 41.0333 308.562 42.522 305.623 42.522C304.231 42.522 303.148 42.1353 302.375 41.362C301.64 40.5887 301.273 39.4867 301.273 38.056V25.296C301.273 23.324 300.906 21.9127 300.171 21.062C299.436 20.1727 298.354 19.728 296.923 19.728C295.067 19.728 293.578 20.308 292.457 21.468C291.374 22.628 290.833 24.1747 290.833 26.108V38.056C290.833 41.0333 289.383 42.522 286.483 42.522ZM327.647 42.638C325.172 42.638 322.988 42.0387 321.093 40.84C319.237 39.6027 317.787 37.882 316.743 35.678C315.699 33.4353 315.177 30.7867 315.177 27.732C315.177 24.6773 315.699 22.048 316.743 19.844C317.787 17.64 319.237 15.9387 321.093 14.74C322.988 13.5413 325.172 12.942 327.647 12.942C329.542 12.942 331.282 13.348 332.867 14.16C334.452 14.972 335.651 16.0547 336.463 17.408V5.054C336.463 2.07666 337.913 0.587997 340.813 0.587997C343.752 0.587997 345.221 2.07666 345.221 5.054V38.056C345.221 41.0333 343.771 42.522 340.871 42.522C337.971 42.522 336.521 41.0333 336.521 38.056V37.882C335.748 39.3513 334.549 40.5113 332.925 41.362C331.34 42.2127 329.58 42.638 327.647 42.638ZM330.257 36.084C332.113 36.084 333.621 35.4073 334.781 34.054C335.98 32.7007 336.579 30.5933 336.579 27.732C336.579 24.9093 335.98 22.8407 334.781 21.526C333.621 20.1727 332.113 19.496 330.257 19.496C328.401 19.496 326.893 20.1727 325.733 21.526C324.573 22.8407 323.993 24.9093 323.993 27.732C323.993 30.5933 324.573 32.7007 325.733 34.054C326.893 35.4073 328.401 36.084 330.257 36.084ZM362.873 42.638C361.172 42.638 359.413 42.4833 357.595 42.174C355.817 41.8647 354.193 41.3427 352.723 40.608C351.757 40.1053 351.119 39.4673 350.809 38.694C350.539 37.9207 350.539 37.1667 350.809 36.432C351.08 35.6973 351.563 35.156 352.259 34.808C352.955 34.4213 353.767 34.4213 354.695 34.808C356.281 35.4653 357.731 35.9293 359.045 36.2C360.399 36.4707 361.694 36.606 362.931 36.606C364.555 36.606 365.754 36.3547 366.527 35.852C367.301 35.3107 367.687 34.6147 367.687 33.764C367.687 32.4107 366.701 31.56 364.729 31.212L358.639 30.11C356.203 29.6847 354.347 28.8147 353.071 27.5C351.795 26.1853 351.157 24.4647 351.157 22.338C351.157 20.4047 351.699 18.742 352.781 17.35C353.864 15.958 355.353 14.8753 357.247 14.102C359.142 13.3287 361.327 12.942 363.801 12.942C367.204 12.942 370.22 13.5993 372.849 14.914C373.739 15.3393 374.28 15.9387 374.473 16.712C374.705 17.4853 374.667 18.2393 374.357 18.974C374.048 19.7087 373.545 20.2693 372.849 20.656C372.153 21.004 371.322 20.9653 370.355 20.54C369.079 19.96 367.919 19.554 366.875 19.322C365.831 19.0513 364.845 18.916 363.917 18.916C362.177 18.916 360.921 19.206 360.147 19.786C359.374 20.3273 358.987 21.0233 358.987 21.874C358.987 23.2273 359.896 24.078 361.713 24.426L367.803 25.528C370.317 25.9533 372.231 26.804 373.545 28.08C374.86 29.3173 375.517 31.0187 375.517 33.184C375.517 36.1613 374.357 38.4813 372.037 40.144C369.717 41.8067 366.663 42.638 362.873 42.638ZM394.378 42.638C391.285 42.638 388.578 42.0387 386.258 40.84C383.977 39.6027 382.218 37.8627 380.98 35.62C379.743 33.3773 379.124 30.7287 379.124 27.674C379.124 24.6193 379.743 21.99 380.98 19.786C382.218 17.582 383.977 15.9 386.258 14.74C388.578 13.5413 391.285 12.942 394.378 12.942C395.577 12.942 396.853 13.0967 398.206 13.406C399.598 13.6767 400.932 14.16 402.208 14.856C403.175 15.32 403.774 15.9773 404.006 16.828C404.238 17.64 404.18 18.452 403.832 19.264C403.523 20.076 403.001 20.6753 402.266 21.062C401.57 21.41 400.739 21.3327 399.772 20.83C398.226 20.018 396.718 19.612 395.248 19.612C392.967 19.612 391.188 20.3273 389.912 21.758C388.675 23.15 388.056 25.1413 388.056 27.732C388.056 30.284 388.675 32.2947 389.912 33.764C391.188 35.1947 392.967 35.91 395.248 35.91C395.944 35.91 396.679 35.8327 397.452 35.678C398.226 35.4847 398.999 35.1753 399.772 34.75C400.739 34.2473 401.57 34.1893 402.266 34.576C403.001 34.9627 403.504 35.562 403.774 36.374C404.045 37.1473 404.064 37.9593 403.832 38.81C403.6 39.6607 403.02 40.318 402.092 40.782C400.778 41.4393 399.463 41.9033 398.148 42.174C396.834 42.4833 395.577 42.638 394.378 42.638ZM417.728 42.638C415.602 42.638 413.726 42.232 412.102 41.42C410.478 40.608 409.183 39.506 408.216 38.114C407.288 36.722 406.824 35.156 406.824 33.416C406.824 31.3667 407.366 29.7233 408.448 28.486C409.531 27.2487 411.29 26.3787 413.726 25.876C416.162 25.3347 419.391 25.064 423.412 25.064H425.5V24.078C425.5 22.3767 425.114 21.178 424.34 20.482C423.567 19.7473 422.252 19.38 420.396 19.38C419.352 19.38 418.212 19.5153 416.974 19.786C415.737 20.018 414.403 20.424 412.972 21.004C411.89 21.468 410.981 21.5067 410.246 21.12C409.512 20.6947 409.028 20.076 408.796 19.264C408.564 18.4133 408.622 17.5627 408.97 16.712C409.357 15.8613 410.092 15.2427 411.174 14.856C412.992 14.16 414.693 13.6767 416.278 13.406C417.902 13.0967 419.391 12.942 420.744 12.942C425.152 12.942 428.439 13.9473 430.604 15.958C432.77 17.93 433.852 21.004 433.852 25.18V38.056C433.852 41.0333 432.499 42.522 429.792 42.522C427.047 42.522 425.674 41.0333 425.674 38.056V37.708C425.094 39.216 424.108 40.4147 422.716 41.304C421.363 42.1933 419.7 42.638 417.728 42.638ZM419.7 36.78C421.324 36.78 422.697 36.2193 423.818 35.098C424.94 33.9767 425.5 32.5267 425.5 30.748V29.588H423.47C420.493 29.588 418.386 29.8587 417.148 30.4C415.911 30.9027 415.292 31.792 415.292 33.068C415.292 34.1507 415.66 35.04 416.394 35.736C417.168 36.432 418.27 36.78 419.7 36.78ZM444.793 52.962C441.855 52.962 440.385 51.4733 440.385 48.496V17.466C440.385 14.5273 441.816 13.058 444.677 13.058C447.577 13.058 449.027 14.5273 449.027 17.466V17.64C449.839 16.2093 451.038 15.0687 452.623 14.218C454.209 13.3673 455.987 12.942 457.959 12.942C460.434 12.942 462.599 13.5413 464.455 14.74C466.35 15.9387 467.819 17.64 468.863 19.844C469.907 22.048 470.429 24.6773 470.429 27.732C470.429 30.7867 469.907 33.4353 468.863 35.678C467.819 37.882 466.35 39.6027 464.455 40.84C462.599 42.0387 460.434 42.638 457.959 42.638C456.065 42.638 454.325 42.232 452.739 41.42C451.193 40.608 449.994 39.5253 449.143 38.172V48.496C449.143 51.4733 447.693 52.962 444.793 52.962ZM455.349 36.084C457.205 36.084 458.713 35.4073 459.873 34.054C461.033 32.7007 461.613 30.5933 461.613 27.732C461.613 24.9093 461.033 22.8407 459.873 21.526C458.713 20.1727 457.205 19.496 455.349 19.496C453.455 19.496 451.927 20.1727 450.767 21.526C449.607 22.8407 449.027 24.9093 449.027 27.732C449.027 30.5933 449.607 32.7007 450.767 34.054C451.927 35.4073 453.455 36.084 455.349 36.084ZM490.576 42.638C487.212 42.638 484.312 42.0387 481.876 40.84C479.479 39.6027 477.623 37.882 476.308 35.678C475.032 33.4353 474.394 30.806 474.394 27.79C474.394 24.8513 475.013 22.28 476.25 20.076C477.526 17.8333 479.247 16.0933 481.412 14.856C483.616 13.58 486.149 12.942 489.01 12.942C493.147 12.942 496.434 14.2567 498.87 16.886C501.306 19.4767 502.524 22.9953 502.524 27.442C502.524 28.9113 501.615 29.646 499.798 29.646H482.746C483.055 31.8887 483.867 33.532 485.182 34.576C486.535 35.5813 488.391 36.084 490.75 36.084C491.678 36.084 492.722 35.9873 493.882 35.794C495.081 35.562 496.221 35.1753 497.304 34.634C498.425 34.0927 499.373 33.996 500.146 34.344C500.919 34.6533 501.441 35.1947 501.712 35.968C502.021 36.7413 502.021 37.5533 501.712 38.404C501.441 39.216 500.803 39.8927 499.798 40.434C498.445 41.1687 496.937 41.71 495.274 42.058C493.65 42.4447 492.084 42.638 490.576 42.638ZM489.358 18.742C487.502 18.742 485.994 19.3027 484.834 20.424C483.713 21.5453 483.017 23.1113 482.746 25.122H495.274C495.042 20.8687 493.07 18.742 489.358 18.742Z" fill="#212529"/>
<path d="M16.734 121.638C14.2593 121.638 11.7847 121.367 9.31 120.826C6.83533 120.285 4.68933 119.492 2.872 118.448C1.78933 117.868 1.11267 117.095 0.842 116.128C0.571334 115.123 0.629333 114.156 1.016 113.228C1.40267 112.3 2.02133 111.643 2.872 111.256C3.72267 110.869 4.74733 110.966 5.946 111.546C7.49267 112.435 9.21333 113.093 11.108 113.518C13.0027 113.943 14.878 114.156 16.734 114.156C19.518 114.156 21.5093 113.731 22.708 112.88C23.9453 111.991 24.564 110.889 24.564 109.574C24.564 108.453 24.1387 107.563 23.288 106.906C22.4373 106.249 20.9487 105.688 18.822 105.224L12.268 103.832C4.96 102.285 1.306 98.496 1.306 92.464C1.306 89.8733 2.002 87.6113 3.394 85.678C4.786 83.706 6.71933 82.1787 9.194 81.096C11.7073 80.0133 14.6073 79.472 17.894 79.472C20.0593 79.472 22.186 79.7427 24.274 80.284C26.362 80.7867 28.1987 81.5407 29.784 82.546C30.7507 83.126 31.35 83.88 31.582 84.808C31.814 85.736 31.7367 86.6253 31.35 87.476C31.002 88.3267 30.3833 88.926 29.494 89.274C28.6433 89.622 27.58 89.4867 26.304 88.868C25.028 88.2107 23.6747 87.7273 22.244 87.418C20.8133 87.1087 19.344 86.954 17.836 86.954C15.4 86.954 13.5053 87.4373 12.152 88.404C10.8373 89.332 10.18 90.55 10.18 92.058C10.18 93.1793 10.586 94.088 11.398 94.784C12.21 95.48 13.6213 96.0407 15.632 96.466L22.186 97.858C29.6873 99.482 33.438 103.155 33.438 108.878C33.438 111.43 32.742 113.673 31.35 115.606C29.9967 117.501 28.0633 118.989 25.55 120.072C23.0753 121.116 20.1367 121.638 16.734 121.638ZM52.2082 121.638C49.1536 121.638 46.4856 121.039 44.2043 119.84C41.9616 118.603 40.2216 116.882 38.9842 114.678C37.7469 112.435 37.1283 109.787 37.1283 106.732C37.1283 103.716 37.7469 101.106 38.9842 98.902C40.2216 96.6593 41.9616 94.9387 44.2043 93.74C46.4856 92.5413 49.1536 91.942 52.2082 91.942C55.2629 91.942 57.9116 92.5413 60.1543 93.74C62.4356 94.9387 64.1949 96.6593 65.4323 98.902C66.7083 101.106 67.3463 103.716 67.3463 106.732C67.3463 109.787 66.7083 112.435 65.4323 114.678C64.1949 116.882 62.4356 118.603 60.1543 119.84C57.9116 121.039 55.2629 121.638 52.2082 121.638ZM52.2082 115.084C54.0643 115.084 55.5723 114.407 56.7323 113.054C57.9309 111.701 58.5303 109.593 58.5303 106.732C58.5303 103.909 57.9309 101.841 56.7323 100.526C55.5723 99.1727 54.0643 98.496 52.2082 98.496C50.3523 98.496 48.8443 99.1727 47.6843 100.526C46.5243 101.841 45.9443 103.909 45.9443 106.732C45.9443 109.593 46.5243 111.701 47.6843 113.054C48.8443 114.407 50.3523 115.084 52.2082 115.084ZM82.9405 121.638C76.0965 121.638 72.6745 117.829 72.6745 110.212V84.054C72.6745 81.0767 74.1439 79.588 77.0825 79.588C79.9825 79.588 81.4325 81.0767 81.4325 84.054V109.864C81.4325 111.449 81.7612 112.629 82.4185 113.402C83.1145 114.137 84.0232 114.504 85.1445 114.504C85.4539 114.504 85.7439 114.485 86.0145 114.446C86.3239 114.407 86.6139 114.388 86.8845 114.388C87.5032 114.349 87.9285 114.543 88.1605 114.968C88.4312 115.393 88.5665 116.263 88.5665 117.578C88.5665 119.821 87.6192 121.097 85.7245 121.406C85.3379 121.445 84.8932 121.483 84.3905 121.522C83.8879 121.599 83.4045 121.638 82.9405 121.638ZM102.487 121.638C98.8523 121.638 96.165 120.633 94.425 118.622C92.7237 116.611 91.873 113.595 91.873 109.574V96.466C91.873 93.5273 93.323 92.058 96.223 92.058C99.1617 92.058 100.631 93.5273 100.631 96.466V109.806C100.631 113.17 102.081 114.852 104.981 114.852C106.644 114.852 107.997 114.272 109.041 113.112C110.124 111.913 110.665 110.347 110.665 108.414V96.466C110.665 93.5273 112.115 92.058 115.015 92.058C117.954 92.058 119.423 93.5273 119.423 96.466V117.056C119.423 120.033 118.012 121.522 115.189 121.522C113.797 121.522 112.734 121.135 111.999 120.362C111.264 119.589 110.897 118.506 110.897 117.114C109.002 120.13 106.199 121.638 102.487 121.638ZM140.178 121.638C132.174 121.638 128.172 117.752 128.172 109.98V99.076H125.736C123.455 99.076 122.314 97.9933 122.314 95.828C122.314 93.624 123.455 92.522 125.736 92.522H128.172V88.114C128.172 85.1367 129.641 83.648 132.58 83.648C135.48 83.648 136.93 85.1367 136.93 88.114V92.522H142.44C144.683 92.522 145.804 93.624 145.804 95.828C145.804 97.9933 144.683 99.076 142.44 99.076H136.93V109.632C136.93 111.256 137.297 112.474 138.032 113.286C138.805 114.098 140.023 114.504 141.686 114.504C142.266 114.504 142.807 114.446 143.31 114.33C143.813 114.214 144.277 114.137 144.702 114.098C145.243 114.059 145.688 114.233 146.036 114.62C146.384 115.007 146.558 115.799 146.558 116.998C146.558 117.965 146.403 118.796 146.094 119.492C145.785 120.149 145.243 120.633 144.47 120.942C143.967 121.135 143.271 121.29 142.382 121.406C141.531 121.561 140.797 121.638 140.178 121.638ZM154.907 87.302C153.283 87.302 152.026 86.9347 151.137 86.2C150.286 85.4267 149.861 84.344 149.861 82.952C149.861 81.5213 150.286 80.4387 151.137 79.704C152.026 78.9307 153.283 78.544 154.907 78.544C158.232 78.544 159.895 80.0133 159.895 82.952C159.895 85.852 158.232 87.302 154.907 87.302ZM154.907 121.464C153.476 121.464 152.374 121.058 151.601 120.246C150.866 119.395 150.499 118.216 150.499 116.708V96.872C150.499 93.6627 151.968 92.058 154.907 92.058C156.299 92.058 157.362 92.4833 158.097 93.334C158.87 94.146 159.257 95.3253 159.257 96.872V116.708C159.257 118.216 158.889 119.395 158.155 120.246C157.42 121.058 156.337 121.464 154.907 121.464ZM179.706 121.638C176.652 121.638 173.984 121.039 171.702 119.84C169.46 118.603 167.72 116.882 166.482 114.678C165.245 112.435 164.626 109.787 164.626 106.732C164.626 103.716 165.245 101.106 166.482 98.902C167.72 96.6593 169.46 94.9387 171.702 93.74C173.984 92.5413 176.652 91.942 179.706 91.942C182.761 91.942 185.41 92.5413 187.652 93.74C189.934 94.9387 191.693 96.6593 192.93 98.902C194.206 101.106 194.844 103.716 194.844 106.732C194.844 109.787 194.206 112.435 192.93 114.678C191.693 116.882 189.934 118.603 187.652 119.84C185.41 121.039 182.761 121.638 179.706 121.638ZM179.706 115.084C181.562 115.084 183.07 114.407 184.23 113.054C185.429 111.701 186.028 109.593 186.028 106.732C186.028 103.909 185.429 101.841 184.23 100.526C183.07 99.1727 181.562 98.496 179.706 98.496C177.85 98.496 176.342 99.1727 175.182 100.526C174.022 101.841 173.442 103.909 173.442 106.732C173.442 109.593 174.022 111.701 175.182 113.054C176.342 114.407 177.85 115.084 179.706 115.084ZM204.581 121.522C201.642 121.522 200.173 120.033 200.173 117.056V96.466C200.173 93.5273 201.603 92.058 204.465 92.058C207.326 92.058 208.757 93.5273 208.757 96.466V96.698C209.723 95.1513 211.019 93.972 212.643 93.16C214.267 92.348 216.084 91.942 218.095 91.942C221.459 91.942 223.972 92.928 225.635 94.9C227.297 96.8333 228.129 99.83 228.129 103.89V117.056C228.129 120.033 226.659 121.522 223.721 121.522C222.329 121.522 221.246 121.135 220.473 120.362C219.738 119.589 219.371 118.487 219.371 117.056V104.296C219.371 102.324 219.003 100.913 218.269 100.062C217.534 99.1727 216.451 98.728 215.021 98.728C213.165 98.728 211.676 99.308 210.555 100.468C209.472 101.628 208.931 103.175 208.931 105.108V117.056C208.931 120.033 207.481 121.522 204.581 121.522ZM238.901 121.29C237.354 121.29 236.117 120.826 235.189 119.898C234.299 118.97 233.855 117.771 233.855 116.302C233.855 114.871 234.299 113.711 235.189 112.822C236.117 111.894 237.354 111.43 238.901 111.43C240.447 111.43 241.646 111.894 242.497 112.822C243.386 113.711 243.831 114.871 243.831 116.302C243.831 117.771 243.386 118.97 242.497 119.898C241.646 120.826 240.447 121.29 238.901 121.29Z" fill="#00730C"/>
</svg>
