<svg version="1.1" xmlns="http://www.w3.org/2000/svg" xmlns:xlink="http://www.w3.org/1999/xlink" width="71" height="71" viewBox="0,0,256,256"><defs><clipPath id="clip-1"><rect x="0.5" y="0.5" width="70" height="70" id="clip0_9004_3404" fill="none"></rect></clipPath></defs><g fill="none" fill-rule="nonzero" stroke="none" stroke-width="1" stroke-linecap="butt" stroke-linejoin="miter" stroke-miterlimit="10" stroke-dasharray="" stroke-dashoffset="0" font-family="none" font-weight="none" font-size="none" text-anchor="none" style="mix-blend-mode: normal"><g transform="scale(3.60563,3.60563)"><g clip-path="url(#clip-1)"><path d="M37.94,64.3477c-0.0847,-0.0729 -0.1689,-0.1467 -0.2525,-0.2212v0.2679c0.0844,-0.0155 0.1686,-0.031 0.2525,-0.0467z" fill="#ffffff"></path><path d="M69.389,0.50086c-0.0584,0.00096 -5.9385,0.10432 -13.9078,1.16922c-0.9161,0.12236 -1.277,1.32699 -0.5527,1.92664c3.3536,2.77648 -0.9578,9.47978 -5.0184,5.77842c-0.1882,-0.16671 -0.4281,-0.26341 -0.6794,-0.27379c-0.2512,-0.01039 -0.4983,0.06617 -0.6996,0.21677c-1.502,1.09158 -3.7288,1.31738 -5.4199,0.54866c-0.26,-0.11824 -0.5559,-0.13008 -0.8245,-0.033c-0.2686,0.09709 -0.4886,0.29542 -0.6129,0.55252c-1.7789,3.6798 -8.0284,2.145 -7.2129,-2.3223c0.0302,-0.18755 0.0117,-0.37972 -0.0538,-0.55803c-0.0656,-0.17831 -0.1758,-0.33677 -0.3203,-0.46014c-0.1445,-0.12338 -0.3182,-0.20752 -0.5046,-0.24434c-0.1863,-0.03682 -0.379,-0.02508 -0.5596,0.0341c-5.2558,1.8457 -9.8164,4.15921 -13.5529,6.87821c-0.1209,0.0871 -0.2229,0.1978 -0.2999,0.3254c-0.077,0.1277 -0.1274,0.2696 -0.148,0.4172c-0.0207,0.1476 -0.0113,0.2978 0.0277,0.4417c0.039,0.1438 0.1067,0.2783 0.199,0.3953c2.1375,2.6592 -0.0369,7.1166 -3.4214,7.0821c-0.2918,-0.0007 -0.572,0.114 -0.7795,0.3192c-0.2075,0.2052 -0.3254,0.4841 -0.3279,0.7759c0.0033,2.7312 -2.7773,4.8975 -5.4067,4.2501c-0.26138,-0.0645 -0.53738,-0.0303 -0.77516,0.0959c-0.23778,0.1263 -0.42063,0.3359 -0.51355,0.5886c-3.77548,10.2686 -1.21351,21.5265 1.83203,29.6461l-8.71568,8.7144c-1.91215,1.8959 0.95484,5.2262 3.09367,3.0937l8.77739,-8.7774c4.1983,1.2959 13.3254,3.6965 18.113,3.8478v-4.2735c-0.0115,-1.1941 0.7656,-2.1248 1.5844,-2.9436c0.9374,-0.9373 -0.5142,-2.254 -1.3672,-1.3834l-1.1783,1.1784c-2.8874,2.9417 -7.7409,-1.5422 -4.6403,-4.6404l2.3204,-2.3201v-4.1097c-0.002,-0.6098 0.1668,-1.208 0.4874,-1.7268c0.3207,-0.5187 0.7802,-0.9372 1.3266,-1.2081c1.3501,-0.6748 2.9865,-1.3055 3.6829,-2.7721c0.3656,-0.7186 0.5221,-1.5254 0.4518,-2.3285c-0.0703,-0.8032 -0.3647,-1.5704 -0.8496,-2.2145c-0.7842,-1.0507 -0.7246,-3.1187 -0.7246,-4.4002c-0.0001,-0.6729 -0.1662,-1.3353 -0.4837,-1.9286c-0.3175,-0.5933 -0.7765,-1.099 -1.3363,-1.4723c-3.7044,-2.4493 0.1487,-7.8066 3.6405,-5.46c0.2514,0.1676 0.544,0.2628 0.8458,0.2751c0.3018,0.0123 0.6012,-0.0587 0.8654,-0.2053c0.2641,-0.1466 0.4828,-0.363 0.6321,-0.6257c0.1492,-0.2626 0.2233,-0.5613 0.2141,-0.8632c-0.0011,-0.0342 -0.0019,-0.068 -0.0022,-0.1015c-0.0503,-4.4545 6.5625,-4.4086 6.5625,-0.1245c0,1.9961 2.1875,4.375 5.4687,4.375c3.2813,0 5.4688,-2.7155 5.4688,-4.375c0,-4.4654 6.5625,-4.16 6.5625,0c0,0.0153 0,0.0308 0,0.0461c-0.0026,0.2948 0.0705,0.5853 0.2124,0.8437c0.1419,0.2584 0.3478,0.4761 0.598,0.6321c0.2501,0.156 0.5361,0.2451 0.8306,0.2589c0.2945,0.0137 0.5876,-0.0485 0.8512,-0.1805c1.748,-0.8613 3.8447,-0.6174 4.8081,1.2892c1.4505,-7.5035 2.1985,-15.25969 2.5423,-22.52437c0.0052,-0.14883 -0.0198,-0.29716 -0.0733,-0.43613c-0.0535,-0.13896 -0.1345,-0.26571 -0.2381,-0.37265c-0.1037,-0.10694 -0.2278,-0.19189 -0.365,-0.24976c-0.1372,-0.05787 -0.2847,-0.08747 -0.4336,-0.08703z" fill="#ffffff"></path><path d="M70.1797,54.4141l-2.9609,-2.9608v-5.0158c0,-0.2031 -0.0566,-0.4022 -0.1633,-0.575c-0.1068,-0.1727 -0.2596,-0.3124 -0.4413,-0.4032l-3.9481,-1.9749c-0.4408,-2.2794 -1.6726,-4.3298 -3.4779,-5.7895l3.2181,-2.4136c0.1358,-0.1019 0.2461,-0.234 0.322,-0.3859c0.076,-0.1519 0.1155,-0.3193 0.1155,-0.4891v-5.9772l2.7943,-1.8628c1.1047,-0.7374 0.0228,-2.6626 -1.2134,-1.82l-3.2813,2.1875c-0.1498,0.0998 -0.2726,0.2351 -0.3576,0.3939c-0.085,0.1587 -0.1295,0.336 -0.1295,0.5161v6.0156l-3.4493,2.587c-0.3357,-0.1588 -0.6802,-0.2983 -1.0318,-0.418l-0.6852,-2.7979c-0.4127,-1.6961 -1.4398,-3.1789 -2.8826,-4.1615c2.8971,-1.8896 5.8614,-3.9276 5.8614,-7.7877c0,-1.3536 -2.1875,-1.4726 -2.1875,0c0,3.8144 -3.4916,5.0256 -6.0695,6.7422c-1.0447,-0.2359 -2.1288,-0.2359 -3.1735,0c-2.5294,-1.6846 -6.0695,-3.0383 -6.0695,-6.7422c0,-1.3536 -2.1875,-1.4728 -2.1875,0c0,3.9995 2.8364,5.8391 5.8588,7.7894c-1.4415,0.9826 -2.4676,2.4647 -2.8799,4.1598l-0.6853,2.7981c-0.3516,0.1196 -0.6961,0.2592 -1.0318,0.4179l-3.4493,-2.5871v-6.0156c0,-0.1801 -0.0444,-0.3573 -0.1294,-0.5161c-0.0849,-0.1587 -0.2078,-0.2941 -0.3576,-0.3939l-3.2812,-2.1875c-1.2096,-0.8236 -2.3516,1.0774 -1.2134,1.82l2.7941,1.8628v5.9772c0,0.1698 0.0396,0.3372 0.1155,0.4891c0.0759,0.1519 0.1862,0.284 0.322,0.3859l3.2188,2.414c-1.8052,1.4596 -3.0369,3.5099 -3.4779,5.7891l-3.9488,1.9745c-0.1817,0.0909 -0.3345,0.2305 -0.4413,0.4034c-0.1068,0.1729 -0.1633,0.372 -0.1633,0.5752v5.0158l-2.9609,2.9608c-0.9217,0.904 0.4536,2.6347 1.5469,1.5468l3.2812,-3.2812c0.1016,-0.1016 0.1821,-0.2222 0.2371,-0.3549c0.055,-0.1327 0.0832,-0.2749 0.0832,-0.4185v-4.7928l2.1875,-1.0269c1.5723,-2.5639 4.5997,-4.0241 8.75,-4.0241h10.9375c4.1504,0 7.1784,1.4602 8.75,4.0241v-0.0669l2.1875,1.0938v4.7928c0,0.1436 0.0283,0.2858 0.0833,0.4185c0.0549,0.1327 0.1355,0.2533 0.237,0.3549l3.2813,3.2812c0.9756,0.9926 2.5494,-0.5613 1.5468,-1.5468z" fill="#ffffff"></path><path d="M43.1562,44.2501v12.5874c0,3.3178 1.3696,6.6753 3.6302,9.1662c0.2461,0.032 0.4949,0.0562 0.7448,0.0753v-21.8289z" fill="#ffffff"></path><path d="M54.0938,44.2501h-4.375v21.8289c0.2499,-0.0191 0.4984,-0.0433 0.7447,-0.0753c2.2607,-2.4909 3.6303,-5.8484 3.6303,-9.1662z" fill="#ffffff"></path><path d="M40.9687,56.8374v-12.3912c-3.0899,0.5773 -5.2897,2.3897 -6.5625,4.8535v2.6065c-0.0022,2.0412 0.4378,4.0586 1.2899,5.9134l-2.0634,2.0632c-0.1015,0.1016 -0.1821,0.2222 -0.2371,0.3549c-0.0549,0.1327 -0.0832,0.2749 -0.0832,0.4185v5.0158l-2.9609,2.9608c-0.914,0.895 0.447,2.6409 1.5468,1.5469l3.2813,-3.2813c0.1015,-0.1016 0.1821,-0.2221 0.2371,-0.3548c0.0549,-0.1327 0.0832,-0.275 0.0832,-0.4186v-5.0158l1.307,-1.3071c1.6115,2.4042 3.9146,4.2627 6.6048,5.3302c-1.5501,-2.4958 -2.443,-5.4077 -2.443,-8.2949z" fill="#ffffff"></path><path d="M66.8983,68.6329l-2.9609,-2.9608v-5.0158c0,-0.1437 -0.0283,-0.2859 -0.0832,-0.4186c-0.055,-0.1327 -0.1356,-0.2533 -0.2371,-0.3548l-2.0634,-2.0633c0.8521,-1.8548 1.2922,-3.8722 1.29,-5.9133v-2.607c-1.2729,-2.4634 -3.4727,-4.2757 -6.5625,-4.8535v12.3912c0,2.8873 -0.8929,5.7991 -2.4431,8.2949c2.6903,-1.0674 4.9934,-2.9259 6.6048,-5.3301l1.307,1.307v5.0162c0,0.1437 0.0283,0.2859 0.0833,0.4186c0.0549,0.1327 0.1355,0.2533 0.237,0.3548l3.2813,3.2813c0.9756,0.9924 2.5494,-0.5614 1.5468,-1.5468z" fill="#ffffff"></path></g></g></g></svg>