<svg version="1.1" xmlns="http://www.w3.org/2000/svg" xmlns:xlink="http://www.w3.org/1999/xlink" width="71" height="71" viewBox="0,0,256,256"><g fill="#ffffff" fill-rule="nonzero" stroke="none" stroke-width="1" stroke-linecap="butt" stroke-linejoin="miter" stroke-miterlimit="10" stroke-dasharray="" stroke-dashoffset="0" font-family="none" font-weight="none" font-size="none" text-anchor="none" style="mix-blend-mode: normal"><g transform="translate(-0.10064,-0.002) scale(3.60563,3.60563)"><path d="M42.5221,10.6228c0.3471,-0.2625 0.7842,-0.3763 1.2152,-0.3164c0.2134,0.0296 0.4189,0.101 0.6047,0.21c0.1858,0.1091 0.3483,0.2537 0.4783,0.4255c0.1299,0.1719 0.2247,0.3677 0.279,0.5762c0.0543,0.2085 0.067,0.4256 0.0373,0.639c-0.0296,0.2134 -0.101,0.4189 -0.21,0.6047c-0.1091,0.1858 -0.2537,0.3484 -0.4255,0.4783c-2.4313,2.0039 -4.5003,4.4104 -6.1168,7.1147c-0.1641,0.277 -0.3194,0.5552 -0.4696,0.834c1.198,-0.1392 2.3884,-0.3383 3.5665,-0.5965c3.4548,-0.7779 6.1637,-2.9196 7.247,-5.7285l3.7373,-9.69339c-5.7925,0.27877 -10.7038,2.25928 -13.5805,5.50569c-1.7958,2.0264 -2.7481,4.4526 -2.8467,7.2309c2.8765,-4.5259 6.3307,-7.1684 6.4838,-7.2842z"></path><path d="M40.8794,34.7208c3.3122,0.2791 6.2002,-0.5879 8.5917,-2.5866c3.3288,-2.7816 5.452,-7.6326 5.8996,-13.4147l-9.7987,3.4539c-2.8397,1.0009 -5.0586,3.6466 -5.9374,7.0771c-0.2083,0.8142 -0.3947,1.709 -0.5592,2.6737l7.2735,-6.6507c0.1588,-0.1463 0.345,-0.2597 0.5478,-0.3339c0.2028,-0.0742 0.4182,-0.1076 0.634,-0.0983c0.2157,0.0093 0.4275,0.0611 0.6231,0.1523c0.1957,0.0913 0.3715,0.2204 0.5172,0.3797c0.1457,0.1594 0.2585,0.3459 0.332,0.549c0.0734,0.2031 0.1061,0.4186 0.096,0.6343c-0.01,0.2157 -0.0625,0.4273 -0.1545,0.6227c-0.092,0.1953 -0.2216,0.3706 -0.3815,0.5158z"></path><path d="M28.45,31.0886c-0.6231,-1.1651 -1.3132,-2.2931 -2.0666,-3.3785l-4.0584,-5.8322c-0.2485,-0.3572 -0.345,-0.7985 -0.2682,-1.2268c0.0768,-0.4283 0.3206,-0.8085 0.6778,-1.0571c0.3571,-0.2485 0.7984,-0.345 1.2267,-0.2682c0.4283,0.0768 0.8085,0.3206 1.0571,0.6778l4.0586,5.8323c0.4581,0.6586 0.8962,1.3356 1.3144,2.0311c-0.5086,-8.6563 -6.1263,-15.7145 -13.2942,-16.5101l0.9949,7.913c0.5064,4.6529 3.5184,9.9255 10.3579,11.8187z"></path><path d="M60.3063,61.7208c-0.2126,-0.184 -0.4623,-0.3201 -0.7322,-0.3989c-0.2699,-0.0788 -0.5536,-0.0985 -0.8319,-0.0578c-9.2465,1.3508 -23.0097,0.5076 -31.3816,-4.5344c-0.7619,-0.459 -1.4272,-0.8552 -1.8761,-1.1157c-1.387,-0.804 -2.8474,-1.4741 -4.3614,-2.0013c-1.8164,-0.6329 -3.7264,-0.9555 -5.6499,-0.9542c-0.8281,0 -2.2695,0.0623 -3.6538,0.2019c-0.4834,0.0477 -0.9314,0.2751 -1.2553,0.6372c-0.3238,0.3621 -0.5,0.8325 -0.4937,1.3183v0.0388c-0.0065,0.2707 0.0444,0.5396 0.1494,0.7892c0.1051,0.2496 0.2617,0.474 0.4598,0.6586c0.1947,0.1849 0.4268,0.3259 0.6805,0.4136c0.2538,0.0877 0.5234,0.1201 0.7907,0.0949c1.1409,-0.0999 2.4086,-0.162 3.3086,-0.162c2.0787,-0.0014 4.1429,0.3469 6.106,1.0303c1.5971,0.5557 3.1377,1.2621 4.6009,2.1098c0.4555,0.264 1.1294,0.6644 1.8976,1.127c8.0204,4.8307 21.8125,5.7832 31.2919,4.227c0.3667,-0.0634 0.7078,-0.2296 0.9837,-0.4792c0.2759,-0.2497 0.4752,-0.5726 0.5748,-0.9311c0.0996,-0.3585 0.0953,-0.7379 -0.0123,-1.0941c-0.1076,-0.3562 -0.3141,-0.6745 -0.5956,-0.9179zM29.1048,59.9472c-0.0872,0.159 -0.234,0.2768 -0.408,0.3275c-0.174,0.0508 -0.3611,0.0304 -0.5201,-0.0568c-0.2798,-0.1535 -0.5553,-0.3117 -0.8185,-0.4703c-0.1553,-0.0936 -0.267,-0.245 -0.3107,-0.421c-0.0436,-0.176 -0.0155,-0.3621 0.0781,-0.5174c0.0935,-0.1553 0.245,-0.267 0.421,-0.3106c0.1759,-0.0437 0.362,-0.0156 0.5173,0.078c0.2474,0.149 0.5059,0.2979 0.7702,0.4425c0.1589,0.0872 0.2767,0.234 0.3275,0.408c0.0508,0.1741 0.0303,0.3611 -0.0568,0.5201zM46.7589,64.7715c-0.0128,0 -0.0256,-0.0001 -0.0385,-0.001c-6.025,-0.3316 -11.5133,-1.4643 -15.8688,-3.2752c-0.0835,-0.034 -0.1596,-0.0842 -0.2236,-0.1477c-0.0641,-0.0636 -0.115,-0.1391 -0.1497,-0.2224c-0.0348,-0.0833 -0.0527,-0.1726 -0.0527,-0.2628c-0.0001,-0.0902 0.0178,-0.1796 0.0524,-0.2629c0.0347,-0.0833 0.0854,-0.1589 0.1495,-0.2225c0.064,-0.0635 0.1399,-0.1138 0.2235,-0.1479c0.0835,-0.0341 0.173,-0.0513 0.2632,-0.0506c0.0902,0.0006 0.1794,0.0191 0.2624,0.0544c4.2145,1.7522 9.5465,2.8494 15.4196,3.1727c0.178,0.0095 0.3452,0.088 0.4661,0.219c0.1209,0.131 0.1859,0.304 0.1811,0.4821c-0.0049,0.1782 -0.0791,0.3474 -0.2069,0.4717c-0.1277,0.1242 -0.299,0.1937 -0.4772,0.1935z"></path><path d="M34.6362,39.8737c-0.1006,0.2811 -0.1914,0.5606 -0.2757,0.8398c-1.0694,-5.207 -3.1582,-10.1476 -6.0694,-14.331l-4.0583,-5.8322c-0.1036,-0.1488 -0.262,-0.2504 -0.4405,-0.2824c-0.1785,-0.032 -0.3623,0.0082 -0.5112,0.1117c-0.1488,0.1036 -0.2504,0.262 -0.2824,0.4405c-0.032,0.1784 0.0082,0.3623 0.1117,0.5111l4.0584,5.8322c2.9431,4.2291 5.0176,9.2646 5.9991,14.5619c0.2291,1.2364 0.4171,2.4521 0.5637,3.6333c0.0224,0.5579 0.0838,1.1135 0.1837,1.6628h0.0037c0.0014,0.0076 0.0044,0.0145 0.006,0.0221c-0.8103,0.2778 -1.6018,0.5866 -2.3652,0.9264c-0.4006,0.1778 -0.8004,0.364 -1.1885,0.5521c-3.8794,1.8803 -6.8961,2.4299 -10.389,3.067c-0.2075,0.0378 -0.4161,0.0758 -0.6256,0.1143c0.7483,0.1603 1.4859,0.3668 2.2087,0.6183c1.5971,0.5556 3.1376,1.262 4.6008,2.1097c0.4556,0.2641 1.1295,0.6644 1.8977,1.1271c5.4895,3.3068 16.8802,6.0548 29.2772,4.5153l-3.6427,-7.664c-0.4742,-1.0066 -1.0677,-1.9525 -1.7678,-2.8173c-1.4513,-1.7774 -3.0636,-2.7646 -5.5621,-3.4043l-0.3363,-0.0674c-1.4446,-0.2874 -2.9139,-0.4317 -4.3868,-0.431c-1.9257,-0.0032 -3.8437,0.245 -5.7051,0.7383c-0.2325,0.062 -0.463,0.1274 -0.6928,0.1946c-0.0447,-0.455 -0.0956,-0.9157 -0.1527,-1.3821c-0.0554,-1.5657 0.2218,-3.2098 0.8288,-4.9067c0.8052,-2.2794 2.1533,-4.3285 3.9276,-5.9704l8.0656,-7.3751c0.1336,-0.1224 0.2132,-0.2929 0.2212,-0.4739c0.008,-0.181 -0.0562,-0.3578 -0.1785,-0.4915c-0.1222,-0.1337 -0.2926,-0.2134 -0.4736,-0.2216c-0.181,-0.0082 -0.3578,0.0558 -0.4917,0.178l-8.0655,7.3755c-1.2483,1.1487 -2.3053,2.4893 -3.1309,3.9712c-1.1387,-3.0655 -1.5245,-6.1613 -1.1447,-9.2203c0.3461,-2.7879 1.3244,-5.5594 2.9077,-8.2379c2.717,-4.5962 6.3195,-7.3576 6.3634,-7.3911c0.143,-0.11 0.2368,-0.2719 0.2609,-0.4506c0.0241,-0.1788 -0.0234,-0.3598 -0.1322,-0.5036c-0.1087,-0.1439 -0.2699,-0.2389 -0.4484,-0.2645c-0.1786,-0.0256 -0.3599,0.0205 -0.5047,0.1281c-0.155,0.1173 -3.831,2.9257 -6.6914,7.7448c-2.644,4.4539 -5.0237,11.5019 -1.4212,19.845c-0.1251,0.2952 -0.242,0.5945 -0.351,0.8978zM30.1218,53.9584c-0.3314,0 -0.6553,-0.0983 -0.9308,-0.2824c-0.2755,-0.1841 -0.4902,-0.4457 -0.617,-0.7519c-0.1268,-0.3061 -0.16,-0.643 -0.0954,-0.9679c0.0647,-0.325 0.2242,-0.6235 0.4585,-0.8578c0.2343,-0.2344 0.5329,-0.3939 0.8578,-0.4586c0.325,-0.0646 0.6619,-0.0314 0.968,0.0954c0.3061,0.1268 0.5678,0.3415 0.7519,0.617c0.1841,0.2755 0.2823,0.5995 0.2823,0.9308c-0.0005,0.4442 -0.1771,0.87 -0.4912,1.1841c-0.3141,0.3141 -0.7399,0.4907 -1.1841,0.4913zM52.2702,56.1798c0.2074,-0.0001 0.4101,0.0612 0.5825,0.1764c0.1725,0.1151 0.3069,0.2787 0.3863,0.4703c0.0795,0.1915 0.1003,0.4023 0.0599,0.6056c-0.0404,0.2034 -0.1402,0.3902 -0.2867,0.5369c-0.1466,0.1466 -0.3334,0.2465 -0.5367,0.287c-0.2034,0.0405 -0.4142,0.0198 -0.6057,-0.0595c-0.1916,-0.0794 -0.3554,-0.2137 -0.4706,-0.3861c-0.1152,-0.1724 -0.1767,-0.3751 -0.1767,-0.5824c0.0003,-0.2779 0.1109,-0.5444 0.3074,-0.7409c0.1965,-0.1965 0.463,-0.3071 0.7409,-0.3073zM47.2423,50.6153c0.2839,0 0.5614,0.0842 0.7975,0.2419c0.2361,0.1578 0.4201,0.382 0.5287,0.6443c0.1087,0.2623 0.1371,0.5509 0.0817,0.8294c-0.0554,0.2785 -0.1921,0.5343 -0.3929,0.735c-0.2007,0.2008 -0.4565,0.3375 -0.735,0.3929c-0.2785,0.0554 -0.5671,0.027 -0.8294,-0.0817c-0.2623,-0.1086 -0.4865,-0.2926 -0.6443,-0.5287c-0.1577,-0.2361 -0.2419,-0.5136 -0.2419,-0.7975c0.0004,-0.3807 0.1519,-0.7457 0.4211,-1.0148c0.2693,-0.2692 0.6343,-0.4205 1.015,-0.4208zM42.3085,55.3139c0.3191,0 0.631,0.0946 0.8963,0.2719c0.2653,0.1773 0.4721,0.4292 0.5942,0.724c0.1221,0.2948 0.154,0.6192 0.0918,0.9321c-0.0623,0.313 -0.2159,0.6004 -0.4416,0.8261c-0.2256,0.2256 -0.513,0.3792 -0.826,0.4415c-0.3129,0.0622 -0.6373,0.0303 -0.9321,-0.0918c-0.2948,-0.1221 -0.5467,-0.3289 -0.724,-0.5942c-0.1773,-0.2653 -0.2719,-0.5772 -0.2719,-0.8963c0.0005,-0.4277 0.1706,-0.8378 0.473,-1.1402c0.3025,-0.3025 0.7126,-0.4726 1.1403,-0.4731zM39.4027,47.4753c0.2803,0 0.5543,0.0831 0.7874,0.2388c0.2332,0.1557 0.4148,0.3771 0.5221,0.6361c0.1073,0.2589 0.1354,0.5439 0.0807,0.8189c-0.0546,0.2749 -0.1896,0.5275 -0.3878,0.7257c-0.1982,0.1983 -0.4508,0.3333 -0.7257,0.388c-0.275,0.0547 -0.56,0.0266 -0.819,-0.0807c-0.259,-0.1072 -0.4803,-0.2889 -0.6361,-0.522c-0.1557,-0.2331 -0.2389,-0.5071 -0.2389,-0.7874c0.0005,-0.3758 0.1499,-0.736 0.4156,-1.0017c0.2657,-0.2658 0.6259,-0.4152 1.0017,-0.4157zM36.5841,52.3061c0.1912,0 0.3781,0.0567 0.5371,0.1629c0.159,0.1063 0.2829,0.2573 0.356,0.4339c0.0732,0.1767 0.0923,0.3711 0.055,0.5586c-0.0373,0.1875 -0.1294,0.3598 -0.2646,0.495c-0.1352,0.1352 -0.3075,0.2272 -0.495,0.2645c-0.1875,0.0373 -0.3819,0.0181 -0.5586,-0.055c-0.1766,-0.0732 -0.3276,-0.1972 -0.4338,-0.3562c-0.1062,-0.159 -0.1629,-0.3459 -0.1629,-0.5371c0.0003,-0.2563 0.1023,-0.502 0.2835,-0.6832c0.1813,-0.1812 0.427,-0.2831 0.6833,-0.2834z"></path></g></g></svg>