<svg width="434" height="34" viewBox="0 0 434 34" fill="none" xmlns="http://www.w3.org/2000/svg">
<path d="M13.035 33.495C11.115 33.495 9.195 33.285 7.275 32.865C5.355 32.445 3.69 31.83 2.28 31.02C1.44 30.57 0.915 29.97 0.705 29.22C0.495 28.44 0.54 27.69 0.84 26.97C1.14 26.25 1.62 25.74 2.28 25.44C2.94 25.14 3.735 25.215 4.665 25.665C5.865 26.355 7.2 26.865 8.67 27.195C10.14 27.525 11.595 27.69 13.035 27.69C15.195 27.69 16.74 27.36 17.67 26.7C18.63 26.01 19.11 25.155 19.11 24.135C19.11 23.265 18.78 22.575 18.12 22.065C17.46 21.555 16.305 21.12 14.655 20.76L9.57 19.68C3.9 18.48 1.065 15.54 1.065 10.86C1.065 8.85 1.605 7.095 2.685 5.595C3.765 4.065 5.265 2.88 7.185 2.04C9.135 1.2 11.385 0.779999 13.935 0.779999C15.615 0.779999 17.265 0.989999 18.885 1.41C20.505 1.8 21.93 2.385 23.16 3.165C23.91 3.615 24.375 4.2 24.555 4.92C24.735 5.64 24.675 6.33 24.375 6.99C24.105 7.65 23.625 8.115 22.935 8.385C22.275 8.655 21.45 8.55 20.46 8.07C19.47 7.56 18.42 7.185 17.31 6.945C16.2 6.705 15.06 6.585 13.89 6.585C12 6.585 10.53 6.96 9.48 7.71C8.46 8.43 7.95 9.375 7.95 10.545C7.95 11.415 8.265 12.12 8.895 12.66C9.525 13.2 10.62 13.635 12.18 13.965L17.265 15.045C23.085 16.305 25.995 19.155 25.995 23.595C25.995 25.575 25.455 27.315 24.375 28.815C23.325 30.285 21.825 31.44 19.875 32.28C17.955 33.09 15.675 33.495 13.035 33.495ZM41.4131 33.495C38.8031 33.495 36.5531 33.03 34.6631 32.1C32.8031 31.14 31.3631 29.805 30.3431 28.095C29.3531 26.355 28.8581 24.315 28.8581 21.975C28.8581 19.695 29.3381 17.7 30.2981 15.99C31.2881 14.25 32.6231 12.9 34.3031 11.94C36.0131 10.95 37.9781 10.455 40.1981 10.455C43.4081 10.455 45.9581 11.475 47.8481 13.515C49.7381 15.525 50.6831 18.255 50.6831 21.705C50.6831 22.845 49.9781 23.415 48.5681 23.415H35.3381C35.5781 25.155 36.2081 26.43 37.2281 27.24C38.2781 28.02 39.7181 28.41 41.5481 28.41C42.2681 28.41 43.0781 28.335 43.9781 28.185C44.9081 28.005 45.7931 27.705 46.6331 27.285C47.5031 26.865 48.2381 26.79 48.8381 27.06C49.4381 27.3 49.8431 27.72 50.0531 28.32C50.2931 28.92 50.2931 29.55 50.0531 30.21C49.8431 30.84 49.3481 31.365 48.5681 31.785C47.5181 32.355 46.3481 32.775 45.0581 33.045C43.7981 33.345 42.5831 33.495 41.4131 33.495ZM40.4681 14.955C39.0281 14.955 37.8581 15.39 36.9581 16.26C36.0881 17.13 35.5481 18.345 35.3381 19.905H45.0581C44.8781 16.605 43.3481 14.955 40.4681 14.955ZM58.1454 33.405C55.8054 33.405 54.6354 32.25 54.6354 29.94V13.965C54.6354 11.685 55.7454 10.545 57.9654 10.545C60.1854 10.545 61.2954 11.685 61.2954 13.965V14.775C62.3754 12.105 64.6104 10.665 68.0004 10.455C68.7504 10.395 69.3204 10.59 69.7104 11.04C70.1304 11.46 70.3554 12.165 70.3854 13.155C70.4454 14.085 70.2504 14.82 69.8004 15.36C69.3804 15.9 68.6604 16.23 67.6404 16.35L66.6054 16.44C63.2454 16.77 61.5654 18.48 61.5654 21.57V29.94C61.5654 32.25 60.4254 33.405 58.1454 33.405ZM83.9026 33.405C82.1326 33.405 80.8426 32.475 80.0326 30.615L73.2376 14.955C72.7276 13.785 72.7126 12.765 73.1926 11.895C73.6726 10.995 74.6626 10.545 76.1626 10.545C76.9726 10.545 77.6326 10.74 78.1426 11.13C78.6526 11.49 79.1026 12.195 79.4926 13.245L84.1276 24.945L88.8976 13.2C89.3176 12.18 89.7826 11.49 90.2926 11.13C90.8026 10.74 91.5076 10.545 92.4076 10.545C93.5476 10.545 94.3576 10.995 94.8376 11.895C95.3176 12.765 95.2876 13.77 94.7476 14.91L87.8176 30.615C87.0376 32.475 85.7326 33.405 83.9026 33.405ZM102.001 6.855C100.741 6.855 99.7657 6.57 99.0757 6C98.4157 5.4 98.0857 4.56 98.0857 3.48C98.0857 2.37 98.4157 1.53 99.0757 0.959999C99.7657 0.359998 100.741 0.0599976 102.001 0.0599976C104.581 0.0599976 105.871 1.2 105.871 3.48C105.871 5.73 104.581 6.855 102.001 6.855ZM102.001 33.36C100.891 33.36 100.036 33.045 99.4357 32.415C98.8657 31.755 98.5807 30.84 98.5807 29.67V14.28C98.5807 11.79 99.7207 10.545 102.001 10.545C103.081 10.545 103.906 10.875 104.476 11.535C105.076 12.165 105.376 13.08 105.376 14.28V29.67C105.376 30.84 105.091 31.755 104.521 32.415C103.951 33.045 103.111 33.36 102.001 33.36ZM121.377 33.495C118.977 33.495 116.877 33.03 115.077 32.1C113.307 31.14 111.942 29.79 110.982 28.05C110.022 26.31 109.542 24.255 109.542 21.885C109.542 19.515 110.022 17.475 110.982 15.765C111.942 14.055 113.307 12.75 115.077 11.85C116.877 10.92 118.977 10.455 121.377 10.455C122.307 10.455 123.297 10.575 124.347 10.815C125.427 11.025 126.462 11.4 127.452 11.94C128.202 12.3 128.667 12.81 128.847 13.47C129.027 14.1 128.982 14.73 128.712 15.36C128.472 15.99 128.067 16.455 127.497 16.755C126.957 17.025 126.312 16.965 125.562 16.575C124.362 15.945 123.192 15.63 122.052 15.63C120.282 15.63 118.902 16.185 117.912 17.295C116.952 18.375 116.472 19.92 116.472 21.93C116.472 23.91 116.952 25.47 117.912 26.61C118.902 27.72 120.282 28.275 122.052 28.275C122.592 28.275 123.162 28.215 123.762 28.095C124.362 27.945 124.962 27.705 125.562 27.375C126.312 26.985 126.957 26.94 127.497 27.24C128.067 27.54 128.457 28.005 128.667 28.635C128.877 29.235 128.892 29.865 128.712 30.525C128.532 31.185 128.082 31.695 127.362 32.055C126.342 32.565 125.322 32.925 124.302 33.135C123.282 33.375 122.307 33.495 121.377 33.495ZM143.147 33.495C140.537 33.495 138.287 33.03 136.397 32.1C134.537 31.14 133.097 29.805 132.077 28.095C131.087 26.355 130.592 24.315 130.592 21.975C130.592 19.695 131.072 17.7 132.032 15.99C133.022 14.25 134.357 12.9 136.037 11.94C137.747 10.95 139.712 10.455 141.932 10.455C145.142 10.455 147.692 11.475 149.582 13.515C151.472 15.525 152.417 18.255 152.417 21.705C152.417 22.845 151.712 23.415 150.302 23.415H137.072C137.312 25.155 137.942 26.43 138.962 27.24C140.012 28.02 141.452 28.41 143.282 28.41C144.002 28.41 144.812 28.335 145.712 28.185C146.642 28.005 147.527 27.705 148.367 27.285C149.237 26.865 149.972 26.79 150.572 27.06C151.172 27.3 151.577 27.72 151.787 28.32C152.027 28.92 152.027 29.55 151.787 30.21C151.577 30.84 151.082 31.365 150.302 31.785C149.252 32.355 148.082 32.775 146.792 33.045C145.532 33.345 144.317 33.495 143.147 33.495ZM142.202 14.955C140.762 14.955 139.592 15.39 138.692 16.26C137.822 17.13 137.282 18.345 137.072 19.905H146.792C146.612 16.605 145.082 14.955 142.202 14.955ZM164.829 33.495C163.509 33.495 162.144 33.375 160.734 33.135C159.354 32.895 158.094 32.49 156.954 31.92C156.204 31.53 155.709 31.035 155.469 30.435C155.259 29.835 155.259 29.25 155.469 28.68C155.679 28.11 156.054 27.69 156.594 27.42C157.134 27.12 157.764 27.12 158.484 27.42C159.714 27.93 160.839 28.29 161.859 28.5C162.909 28.71 163.914 28.815 164.874 28.815C166.134 28.815 167.064 28.62 167.664 28.23C168.264 27.81 168.564 27.27 168.564 26.61C168.564 25.56 167.799 24.9 166.269 24.63L161.544 23.775C159.654 23.445 158.214 22.77 157.224 21.75C156.234 20.73 155.739 19.395 155.739 17.745C155.739 16.245 156.159 14.955 156.999 13.875C157.839 12.795 158.994 11.955 160.464 11.355C161.934 10.755 163.629 10.455 165.549 10.455C168.189 10.455 170.529 10.965 172.569 11.985C173.259 12.315 173.679 12.78 173.829 13.38C174.009 13.98 173.979 14.565 173.739 15.135C173.499 15.705 173.109 16.14 172.569 16.44C172.029 16.71 171.384 16.68 170.634 16.35C169.644 15.9 168.744 15.585 167.934 15.405C167.124 15.195 166.359 15.09 165.639 15.09C164.289 15.09 163.314 15.315 162.714 15.765C162.114 16.185 161.814 16.725 161.814 17.385C161.814 18.435 162.519 19.095 163.929 19.365L168.654 20.22C170.604 20.55 172.089 21.21 173.109 22.2C174.129 23.16 174.639 24.48 174.639 26.16C174.639 28.47 173.739 30.27 171.939 31.56C170.139 32.85 167.769 33.495 164.829 33.495ZM203.416 33.405C202.426 33.405 201.631 33.18 201.031 32.73C200.461 32.25 199.996 31.53 199.636 30.57L190.546 5.01C190.126 3.87 190.201 2.895 190.771 2.085C191.341 1.275 192.316 0.869998 193.696 0.869998C194.656 0.869998 195.391 1.095 195.901 1.545C196.441 1.995 196.876 2.7 197.206 3.66L203.686 22.965L210.526 3.705C210.856 2.745 211.291 2.04 211.831 1.59C212.371 1.11 213.076 0.869998 213.946 0.869998C214.786 0.869998 215.461 1.11 215.971 1.59C216.481 2.04 216.916 2.76 217.276 3.75L223.891 23.325L230.641 3.66C230.941 2.73 231.361 2.04 231.901 1.59C232.441 1.11 233.176 0.869998 234.106 0.869998C235.276 0.869998 236.131 1.275 236.671 2.085C237.211 2.895 237.271 3.87 236.851 5.01L227.671 30.615C227.341 31.545 226.876 32.25 226.276 32.73C225.706 33.18 224.941 33.405 223.981 33.405C223.021 33.405 222.256 33.18 221.686 32.73C221.116 32.25 220.651 31.53 220.291 30.57L213.721 11.94L207.061 30.615C206.701 31.545 206.236 32.25 205.666 32.73C205.126 33.18 204.376 33.405 203.416 33.405ZM250.022 33.495C247.412 33.495 245.162 33.03 243.272 32.1C241.412 31.14 239.972 29.805 238.952 28.095C237.962 26.355 237.467 24.315 237.467 21.975C237.467 19.695 237.947 17.7 238.907 15.99C239.897 14.25 241.232 12.9 242.912 11.94C244.622 10.95 246.587 10.455 248.807 10.455C252.017 10.455 254.567 11.475 256.457 13.515C258.347 15.525 259.292 18.255 259.292 21.705C259.292 22.845 258.587 23.415 257.177 23.415H243.947C244.187 25.155 244.817 26.43 245.837 27.24C246.887 28.02 248.327 28.41 250.157 28.41C250.877 28.41 251.687 28.335 252.587 28.185C253.517 28.005 254.402 27.705 255.242 27.285C256.112 26.865 256.847 26.79 257.447 27.06C258.047 27.3 258.452 27.72 258.662 28.32C258.902 28.92 258.902 29.55 258.662 30.21C258.452 30.84 257.957 31.365 257.177 31.785C256.127 32.355 254.957 32.775 253.667 33.045C252.407 33.345 251.192 33.495 250.022 33.495ZM249.077 14.955C247.637 14.955 246.467 15.39 245.567 16.26C244.697 17.13 244.157 18.345 243.947 19.905H253.667C253.487 16.605 251.957 14.955 249.077 14.955Z" fill="#212529"/>
<path d="M279.907 33.405C278.767 33.405 277.897 33.09 277.297 32.46C276.697 31.83 276.397 30.945 276.397 29.805V4.83C276.397 2.46 277.582 1.275 279.952 1.275H290.887C294.427 1.275 297.157 2.175 299.077 3.975C300.997 5.745 301.957 8.22 301.957 11.4C301.957 14.58 300.997 17.07 299.077 18.87C297.157 20.67 294.427 21.57 290.887 21.57H283.372V29.805C283.372 30.945 283.072 31.83 282.472 32.46C281.902 33.09 281.047 33.405 279.907 33.405ZM283.372 16.17H289.717C293.407 16.17 295.252 14.58 295.252 11.4C295.252 8.28 293.407 6.72 289.717 6.72H283.372V16.17ZM308.766 33.405C306.426 33.405 305.256 32.25 305.256 29.94V13.965C305.256 11.685 306.366 10.545 308.586 10.545C310.806 10.545 311.916 11.685 311.916 13.965V14.775C312.996 12.105 315.231 10.665 318.621 10.455C319.371 10.395 319.941 10.59 320.331 11.04C320.751 11.46 320.976 12.165 321.006 13.155C321.066 14.085 320.871 14.82 320.421 15.36C320.001 15.9 319.281 16.23 318.261 16.35L317.226 16.44C313.866 16.77 312.186 18.48 312.186 21.57V29.94C312.186 32.25 311.046 33.405 308.766 33.405ZM334.025 33.495C331.655 33.495 329.585 33.03 327.815 32.1C326.075 31.14 324.725 29.805 323.765 28.095C322.805 26.355 322.325 24.3 322.325 21.93C322.325 19.59 322.805 17.565 323.765 15.855C324.725 14.115 326.075 12.78 327.815 11.85C329.585 10.92 331.655 10.455 334.025 10.455C336.395 10.455 338.45 10.92 340.19 11.85C341.96 12.78 343.325 14.115 344.285 15.855C345.275 17.565 345.77 19.59 345.77 21.93C345.77 24.3 345.275 26.355 344.285 28.095C343.325 29.805 341.96 31.14 340.19 32.1C338.45 33.03 336.395 33.495 334.025 33.495ZM334.025 28.41C335.465 28.41 336.635 27.885 337.535 26.835C338.465 25.785 338.93 24.15 338.93 21.93C338.93 19.74 338.465 18.135 337.535 17.115C336.635 16.065 335.465 15.54 334.025 15.54C332.585 15.54 331.415 16.065 330.515 17.115C329.615 18.135 329.165 19.74 329.165 21.93C329.165 24.15 329.615 25.785 330.515 26.835C331.415 27.885 332.585 28.41 334.025 28.41ZM358.737 33.405C356.967 33.405 355.677 32.475 354.867 30.615L348.072 14.955C347.562 13.785 347.547 12.765 348.027 11.895C348.507 10.995 349.497 10.545 350.997 10.545C351.807 10.545 352.467 10.74 352.977 11.13C353.487 11.49 353.937 12.195 354.327 13.245L358.962 24.945L363.732 13.2C364.152 12.18 364.617 11.49 365.127 11.13C365.637 10.74 366.342 10.545 367.242 10.545C368.382 10.545 369.192 10.995 369.672 11.895C370.152 12.765 370.122 13.77 369.582 14.91L362.652 30.615C361.872 32.475 360.567 33.405 358.737 33.405ZM376.835 6.855C375.575 6.855 374.6 6.57 373.91 6C373.25 5.4 372.92 4.56 372.92 3.48C372.92 2.37 373.25 1.53 373.91 0.959999C374.6 0.359998 375.575 0.0599976 376.835 0.0599976C379.415 0.0599976 380.705 1.2 380.705 3.48C380.705 5.73 379.415 6.855 376.835 6.855ZM376.835 33.36C375.725 33.36 374.87 33.045 374.27 32.415C373.7 31.755 373.415 30.84 373.415 29.67V14.28C373.415 11.79 374.555 10.545 376.835 10.545C377.915 10.545 378.74 10.875 379.31 11.535C379.91 12.165 380.21 13.08 380.21 14.28V29.67C380.21 30.84 379.925 31.755 379.355 32.415C378.785 33.045 377.945 33.36 376.835 33.36ZM394.051 33.495C392.131 33.495 390.436 33.03 388.966 32.1C387.526 31.14 386.401 29.805 385.591 28.095C384.781 26.355 384.376 24.3 384.376 21.93C384.376 19.56 384.781 17.52 385.591 15.81C386.401 14.1 387.526 12.78 388.966 11.85C390.436 10.92 392.131 10.455 394.051 10.455C395.521 10.455 396.871 10.77 398.101 11.4C399.331 12.03 400.261 12.87 400.891 13.92V4.335C400.891 2.025 402.016 0.869998 404.266 0.869998C406.546 0.869998 407.686 2.025 407.686 4.335V29.94C407.686 32.25 406.561 33.405 404.311 33.405C402.061 33.405 400.936 32.25 400.936 29.94V29.805C400.336 30.945 399.406 31.845 398.146 32.505C396.916 33.165 395.551 33.495 394.051 33.495ZM396.076 28.41C397.516 28.41 398.686 27.885 399.586 26.835C400.516 25.785 400.981 24.15 400.981 21.93C400.981 19.74 400.516 18.135 399.586 17.115C398.686 16.065 397.516 15.54 396.076 15.54C394.636 15.54 393.466 16.065 392.566 17.115C391.666 18.135 391.216 19.74 391.216 21.93C391.216 24.15 391.666 25.785 392.566 26.835C393.466 27.885 394.636 28.41 396.076 28.41ZM424.397 33.495C421.787 33.495 419.537 33.03 417.647 32.1C415.787 31.14 414.347 29.805 413.327 28.095C412.337 26.355 411.842 24.315 411.842 21.975C411.842 19.695 412.322 17.7 413.282 15.99C414.272 14.25 415.607 12.9 417.287 11.94C418.997 10.95 420.962 10.455 423.182 10.455C426.392 10.455 428.942 11.475 430.832 13.515C432.722 15.525 433.667 18.255 433.667 21.705C433.667 22.845 432.962 23.415 431.552 23.415H418.322C418.562 25.155 419.192 26.43 420.212 27.24C421.262 28.02 422.702 28.41 424.532 28.41C425.252 28.41 426.062 28.335 426.962 28.185C427.892 28.005 428.777 27.705 429.617 27.285C430.487 26.865 431.222 26.79 431.822 27.06C432.422 27.3 432.827 27.72 433.037 28.32C433.277 28.92 433.277 29.55 433.037 30.21C432.827 30.84 432.332 31.365 431.552 31.785C430.502 32.355 429.332 32.775 428.042 33.045C426.782 33.345 425.567 33.495 424.397 33.495ZM423.452 14.955C422.012 14.955 420.842 15.39 419.942 16.26C419.072 17.13 418.532 18.345 418.322 19.905H428.042C427.862 16.605 426.332 14.955 423.452 14.955Z" fill="#00730C"/>
</svg>
