<svg version="1.1" xmlns="http://www.w3.org/2000/svg" xmlns:xlink="http://www.w3.org/1999/xlink" width="71" height="71" viewBox="0,0,256,256"><g fill="#ffffff" fill-rule="none" stroke="none" stroke-width="1" stroke-linecap="butt" stroke-linejoin="miter" stroke-miterlimit="10" stroke-dasharray="" stroke-dashoffset="0" font-family="none" font-weight="none" font-size="none" text-anchor="none" style="mix-blend-mode: normal"><g transform="translate(0.13155,-0.00013) scale(3.60563,3.60563)"><path d="M66.582,18.5837v-8.59025c0.001,-1.74653 -0.6826,-3.42372 -1.9039,-4.67124l-2.3007,-2.30271c-0.8012,-0.82346 -1.9008,-1.28833 -3.0492,-1.28903h-0.0099c-1.152,-0.00035 -2.2558,0.46358 -3.0621,1.28704l-3.4531,3.492l-1.7335,-1.51655c-0.389,-0.34865 -0.8932,-0.54051 -1.4154,-0.53876c-0.5726,0.00304 -1.121,0.23255 -1.5251,0.63849l-0.2063,0.20648l-0.6918,-0.69835c-1.3673,-1.38677 -3.2328,-2.16744 -5.1794,-2.16744c-1.9466,0 -3.8122,0.78067 -5.1795,2.16744c-2.849,2.89782 -2.849,7.54718 0,10.44488l0.7078,0.7164l-0.037,0.0369c-0.8474,0.8643 -0.8474,2.2486 0,3.1129l17.1352,17.3291c0.2062,0.2102 0.4882,0.3286 0.7826,0.3286c0.2943,0 0.5763,-0.1184 0.7825,-0.3286l13.3074,-13.4491c0.22,-0.2263 0.3387,-0.5324 0.329,-0.848c-0.0091,-0.3152 -0.1503,-0.612 -0.3888,-0.8181zM38.9783,14.3385l-0.6917,-0.6984c-2.0836,-2.1183 -2.0836,-5.51805 0,-7.63638c0.9928,-1.00783 2.3478,-1.57524 3.762,-1.57524c1.414,0 2.7692,0.56741 3.762,1.57524l0.7117,0.71531zM64.5884,16.8277l-10.2792,-9.00133l3.3643,-3.40222c0.4319,-0.44546 1.0255,-0.6973 1.6458,-0.69835c0.6175,0.00246 1.208,0.2543 1.6377,0.69835l2.3046,2.30973c0.8501,0.87139 1.3249,2.04163 1.3228,3.25945z" fill-rule="nonzero"></path><path d="M34.949,28.6263v4.1335h14.8386l-5.8024,-5.8546z" fill-rule="evenodd"></path><path d="M27.1256,25.197v12.0807c-0.0093,0.2807 0.1595,0.5368 0.4211,0.6389c0.245,0.1094 0.5323,0.0507 0.7145,-0.1461l4.08,-4.2286v-5.3902l-3.9926,-3.3589c-0.1427,-0.1661 -0.3471,-0.2665 -0.5658,-0.2778c-0.0811,0.0002 -0.1613,0.0165 -0.2361,0.0483c-0.2597,0.1015 -0.4281,0.355 -0.4211,0.6337z" fill-rule="evenodd"></path><path d="M20.6059,35.3676c-2.1604,0 -3.9118,1.7514 -3.9118,3.9117v2.6079c0,0.7202 0.5839,1.3039 1.3039,1.3039c0.7201,0 1.3038,-0.5837 1.3038,-1.3039v-2.6079c0,-0.7201 0.5839,-1.3038 1.3039,-1.3038c0.7202,0 1.3039,-0.5838 1.3039,-1.3039c0,-0.7202 -0.5836,-1.304 -1.3037,-1.304z" fill-rule="evenodd"></path><path d="M20.6059,30.152c-5.0382,0.0064 -9.121,4.0891 -9.1274,9.1274v2.6079c0,0.7201 0.5837,1.3038 1.3039,1.3038c0.7201,0 1.3039,-0.5837 1.3039,-1.3038v-2.6079c0.0042,-3.5988 2.9206,-6.5152 6.5196,-6.5197c0.7202,0 1.3039,-0.5837 1.3039,-1.3039c0,-0.7201 -0.5837,-1.3038 -1.3039,-1.3038z" fill-rule="evenodd"></path><path d="M20.6059,24.9363c-7.9177,0.0093 -14.33388,6.4255 -14.3432,14.3432v2.6077c0,0.7202 0.58386,1.3039 1.30386,1.3039c0.72001,0 1.30388,-0.5837 1.30388,-1.3039v-2.6079c0.00718,-6.4782 5.25706,-11.7281 11.73526,-11.7353c0.7202,0 1.3039,-0.5838 1.3039,-1.3039c0.0001,-0.7201 -0.5836,-1.3038 -1.3037,-1.3038z" fill-rule="evenodd"></path><path d="M45.3803,67.9657c0,-0.7202 -0.5837,-1.3039 -1.3039,-1.3039h-19.5588v-3.4555c0.2566,-0.3234 0.5309,-0.6324 0.8215,-0.9258c0.275,-0.2946 0.5666,-0.5733 0.8736,-0.8345h7.4323c5.0386,-0.0058 9.1218,-4.0888 9.1274,-9.1274v-5.0723c-2.4076,1.6107 -5.2398,2.4686 -8.1365,2.4644c-4.4743,0.003 -8.3083,3.2008 -9.1144,7.6019l-0.2738,1.5385c-0.7279,0.5697 -1.4082,1.1976 -2.0341,1.8777c-0.6259,-0.6801 -1.3062,-1.308 -2.0341,-1.8777l-0.2738,-1.5385c-0.8061,-4.4012 -4.6401,-7.5989 -9.1145,-7.6019c-2.89665,0.0042 -5.72886,-0.8537 -8.13643,-2.4644v5.0723c0.00581,5.0386 4.08886,9.1218 9.12743,9.1274h7.4323c0.6167,0.5347 1.1841,1.1239 1.6951,1.7603v3.4554h-19.55885c-0.72017,0 -1.30387,0.5838 -1.30387,1.3038c0,0.7201 0.58386,1.3041 1.30402,1.3041h41.7255c0.7202,0 1.3039,-0.5837 1.3039,-1.3039z" fill-rule="evenodd"></path></g></g></svg>